<svg width="24" height="24" viewBox="0 0 24 24" fill="none" xmlns="http://www.w3.org/2000/svg">
<path d="M21.2745 13.0899H19.1788C18.8716 13.0899 18.6132 12.985 18.4035 12.7754C18.194 12.5657 18.0893 12.3073 18.0893 12.0001C18.0893 11.693 18.194 11.4345 18.4035 11.2249C18.6132 11.0152 18.8716 10.9104 19.1788 10.9104H21.2745C21.5818 10.9104 21.8403 11.0152 22.0498 11.2249C22.2594 11.4345 22.3643 11.693 22.3643 12.0001C22.3643 12.3073 22.2594 12.5657 22.0498 12.7754C21.8403 12.985 21.5818 13.0899 21.2745 13.0899ZM16.713 16.7464C16.8957 16.497 17.1333 16.3527 17.4258 16.3134C17.7184 16.274 17.9894 16.3457 18.2388 16.5284L19.9105 17.7821C20.1597 17.9648 20.3039 18.2024 20.3433 18.4949C20.3826 18.7875 20.3109 19.0585 20.1283 19.3076C19.9458 19.561 19.7082 19.7073 19.4155 19.7466C19.123 19.786 18.8501 19.7143 18.5968 19.5316L16.925 18.2719C16.6758 18.0892 16.5326 17.8516 16.4953 17.5591C16.4579 17.2665 16.5305 16.9955 16.713 16.7464ZM19.9105 6.21812L18.2388 7.47187C17.9894 7.65453 17.7184 7.7262 17.4258 7.68687C17.1333 7.64753 16.8957 7.5032 16.713 7.25387C16.5305 7.0047 16.4569 6.73378 16.4923 6.44112C16.5276 6.14862 16.6718 5.91103 16.925 5.72837L18.6028 4.46862C18.8561 4.28595 19.128 4.21428 19.4185 4.25362C19.7092 4.29295 19.9458 4.43928 20.1283 4.69262C20.3109 4.94178 20.3826 5.2127 20.3433 5.50537C20.3039 5.79787 20.1597 6.03545 19.9105 6.21812ZM4.63477 15.2034H3.81427C3.20443 15.1795 2.68877 14.9469 2.26727 14.5054C1.8456 14.0639 1.63477 13.5382 1.63477 12.9284V11.0719C1.63477 10.4462 1.85752 9.91062 2.30302 9.46512C2.74852 9.01962 3.2841 8.79687 3.90977 8.79687H7.77827L11.307 6.66687C11.6882 6.43903 12.0715 6.43703 12.457 6.66087C12.8425 6.88487 13.0353 7.21645 13.0353 7.65562V16.3446C13.0353 16.7838 12.8425 17.1154 12.457 17.3394C12.0715 17.5632 11.6882 17.5612 11.307 17.3334L7.77827 15.2034H6.94577V18.0479C6.94577 18.371 6.83393 18.6445 6.61027 18.8681C6.38677 19.0916 6.11343 19.2034 5.79027 19.2034C5.4671 19.2034 5.19377 19.0916 4.97027 18.8681C4.7466 18.6445 4.63477 18.371 4.63477 18.0479V15.2034ZM14.0353 15.5534V8.44687C14.5451 8.86287 14.9534 9.37828 15.2603 9.99312C15.5673 10.6079 15.7208 11.277 15.7208 12.0001C15.7208 12.7233 15.5673 13.3923 15.2603 14.0071C14.9534 14.622 14.5451 15.1374 14.0353 15.5534Z" fill="#0097F7"></path>
</svg>