<svg width="24" height="24" viewBox="0 0 24 24" fill="none" xmlns="http://www.w3.org/2000/svg">
<path d="M11.1831 20.3582C10.9115 20.2608 10.67 20.1086 10.4589 19.9014L8.72188 18.3144C6.96321 16.7096 5.36937 15.1044 3.94037 13.4989C2.51137 11.8933 1.79688 10.1102 1.79688 8.14968C1.79688 6.52318 2.33979 5.16501 3.42563 4.07518C4.51146 2.98535 5.86763 2.44043 7.49413 2.44043C8.36946 2.44043 9.19679 2.61893 9.97613 2.97593C10.7555 3.3331 11.4281 3.82868 11.9941 4.46268C12.5601 3.82868 13.2328 3.3331 14.0121 2.97593C14.7915 2.61893 15.6188 2.44043 16.4941 2.44043C18.1206 2.44043 19.4798 2.98535 20.5716 4.07518C21.6635 5.16501 22.2094 6.52318 22.2094 8.14968C22.2094 10.1102 21.496 11.8974 20.0694 13.5114C18.6427 15.1253 17.0334 16.7366 15.2414 18.3454L13.5354 19.9072C13.3242 20.1145 13.0819 20.2658 12.8084 20.3612C12.5347 20.4563 12.2633 20.5039 11.9941 20.5039C11.725 20.5039 11.4546 20.4553 11.1831 20.3582Z" fill="#10C504"></path>
</svg>