<svg width="24" height="24" viewBox="0 0 24 24" fill="none" xmlns="http://www.w3.org/2000/svg">
<path d="M12.0001 16.0779C11.4301 16.0779 10.9444 15.877 10.5429 15.4754C10.1412 15.0737 9.94037 14.588 9.94037 14.0181C9.94037 13.4481 10.1412 12.9623 10.5429 12.5606C10.9444 12.1591 11.4301 11.9584 12.0001 11.9584C12.5701 11.9584 13.0559 12.1591 13.4574 12.5606C13.859 12.9623 14.0599 13.4481 14.0599 14.0181C14.0599 14.588 13.859 15.0737 13.4574 15.4754C13.0559 15.877 12.5701 16.0779 12.0001 16.0779ZM7.18988 6.96438H16.8044L18.0616 4.44413C18.2521 4.06296 18.2376 3.69313 18.0181 3.33463C17.7985 2.97613 17.473 2.79688 17.0419 2.79688H6.95238C6.52121 2.79688 6.19579 2.97613 5.97612 3.33463C5.75662 3.69313 5.74213 4.06296 5.93263 4.44413L7.18988 6.96438ZM8.37012 21.2034H15.6301C17.178 21.2034 18.4938 20.6656 19.5776 19.5901C20.6615 18.5146 21.2034 17.1946 21.2034 15.6301C21.2034 14.9768 21.092 14.3411 20.8694 13.7231C20.6467 13.1053 20.3275 12.5467 19.9116 12.0474L17.3414 8.96438H6.65888L4.08263 12.0474C3.66679 12.5427 3.34854 13.1003 3.12787 13.7201C2.90721 14.3401 2.79688 14.9768 2.79688 15.6301C2.79688 17.1946 3.33462 18.5146 4.41012 19.5901C5.48562 20.6656 6.80562 21.2034 8.37012 21.2034Z" fill="#F33051"></path>
</svg>