<svg width="24" height="24" viewBox="0 0 24 24" fill="none" xmlns="http://www.w3.org/2000/svg">
<path d="M12.9106 21.9996V17.0474L10.9541 15.1849L10.2271 18.4256C10.1525 18.7283 9.98762 18.9614 9.73262 19.1249C9.47779 19.2885 9.19712 19.3414 8.89062 19.2834L3.97637 18.2894C3.6692 18.2314 3.43362 18.0767 3.26962 17.8254C3.10562 17.5742 3.05262 17.2949 3.11062 16.9876C3.16862 16.6804 3.32429 16.4407 3.57762 16.2684C3.83079 16.096 4.11104 16.0452 4.41837 16.1159L8.12862 16.8979L9.68087 9.03711L8.03612 9.67136V12.0116C8.03612 12.3188 7.93137 12.5772 7.72187 12.7869C7.5122 12.9965 7.25379 13.1014 6.94662 13.1014C6.63929 13.1014 6.37987 12.9955 6.16837 12.7839C5.9567 12.5722 5.85087 12.3128 5.85087 12.0056V8.99736C5.85087 8.76553 5.91404 8.55853 6.04037 8.37636C6.16654 8.19403 6.33529 8.05519 6.54662 7.95986L9.91462 6.52786C10.5098 6.27786 10.9469 6.11336 11.2259 6.03436C11.5049 5.95536 11.763 5.91586 12.0004 5.91586C12.3704 5.91586 12.7093 6.01353 13.0171 6.20886C13.3251 6.40419 13.5768 6.65778 13.7721 6.96961L14.7841 8.56961C15.1221 9.11644 15.5623 9.59119 16.1046 9.99386C16.6471 10.3965 17.279 10.6665 18.0004 10.8039C18.3075 10.8619 18.566 11.0009 18.7756 11.2209C18.9853 11.4407 19.0901 11.7043 19.0901 12.0116C19.0901 12.3188 18.9843 12.574 18.7726 12.7774C18.5611 12.9805 18.308 13.0615 18.0134 13.0204C17.1254 12.887 16.2967 12.6158 15.5274 12.2066C14.7579 11.7976 14.1001 11.2924 13.5541 10.6909L13.0021 13.4816L14.7421 15.1279C14.8581 15.2399 14.9451 15.3673 15.0031 15.5101C15.0611 15.6531 15.0901 15.8013 15.0901 15.9546V21.9996C15.0901 22.3068 14.9853 22.5652 14.7756 22.7749C14.566 22.9845 14.3075 23.0894 14.0004 23.0894C13.6932 23.0894 13.4348 22.9845 13.2251 22.7749C13.0155 22.5652 12.9106 22.3068 12.9106 21.9996ZM12.0311 4.79561C11.6215 4.38594 11.4166 3.89219 11.4166 3.31436C11.4166 2.73636 11.6215 2.24361 12.0311 1.83611C12.4406 1.42844 12.9344 1.22461 13.5124 1.22461C14.0902 1.22461 14.583 1.42844 14.9906 1.83611C15.3983 2.24361 15.6021 2.73636 15.6021 3.31436C15.6021 3.89219 15.3983 4.38594 14.9906 4.79561C14.583 5.20511 14.0902 5.40986 13.5124 5.40986C12.9344 5.40986 12.4406 5.20511 12.0311 4.79561Z" fill="#9031FA"></path>
</svg>