<svg width="24" height="24" viewBox="9 9 23 23" fill="none" xmlns="http://www.w3.org/2000/svg">
<path d="M22.4888 30.5903C22.7039 30.6483 22.9403 30.6731 23.198 30.6648C23.4555 30.6564 23.6816 30.6169 23.8763 30.5463L31.3708 27.819C31.3708 27.1727 31.1708 26.6448 30.7708 26.2355C30.3708 25.8263 29.8563 25.6218 29.2273 25.6218H22.5208C22.4069 25.6218 22.2768 25.6116 22.1305 25.5913C21.9842 25.5709 21.8624 25.5425 21.7653 25.506L20.398 25.0228C20.2487 24.9688 20.143 24.8755 20.081 24.743C20.0192 24.6103 20.0069 24.4693 20.0443 24.32C20.0854 24.1755 20.1827 24.0679 20.336 23.9973C20.4892 23.9266 20.6444 23.9203 20.8018 23.9783L21.879 24.3733C21.9975 24.4186 22.1104 24.4514 22.2178 24.4718C22.3253 24.4921 22.4466 24.5023 22.5818 24.5023H25.2665C25.5592 24.5023 25.8144 24.4028 26.0323 24.204C26.2499 24.0053 26.3588 23.7469 26.3588 23.4288C26.3588 23.1278 26.2551 22.834 26.0478 22.5475C25.8403 22.2612 25.584 22.0623 25.279 21.951L18.5693 19.4598C18.4366 19.4184 18.3049 19.3843 18.1743 19.3573C18.0436 19.3303 17.91 19.3168 17.7735 19.3168H16.0898V28.7783L22.4888 30.5903ZM10 28.6398C10 29.2016 10.2008 29.6823 10.6025 30.082C11.0042 30.4817 11.486 30.6815 12.048 30.6815C12.6098 30.6815 13.0906 30.4817 13.4903 30.082C13.8899 29.6823 14.0898 29.2016 14.0898 28.6398V21.3648C14.0898 20.8028 13.8899 20.3209 13.4903 19.9193C13.0906 19.5176 12.6098 19.3168 12.048 19.3168C11.486 19.3168 11.0042 19.5176 10.6025 19.9193C10.2008 20.3209 10 20.8028 10 21.3648V28.6398ZM24.46 20.1523C24.1863 20.0486 23.9376 19.8931 23.7138 19.6858L21.0415 17.0875C20.5168 16.5795 20.0713 16.0173 19.705 15.401C19.3387 14.7847 19.1555 14.1143 19.1555 13.3898C19.1555 12.4411 19.4913 11.639 20.163 10.9835C20.8345 10.3278 21.6445 10 22.593 10C23.1183 10 23.6133 10.1065 24.078 10.3195C24.5427 10.5325 24.9477 10.8227 25.293 11.1902C25.6383 10.8227 26.0433 10.5325 26.508 10.3195C26.9727 10.1065 27.4677 10 27.993 10C28.9415 10 29.7516 10.3278 30.4233 10.9835C31.0948 11.639 31.4305 12.4411 31.4305 13.3898C31.4305 14.1143 31.2505 14.7847 30.8905 15.401C30.5307 16.0173 30.0884 16.5795 29.5638 17.0875L26.8725 19.6858C26.6485 19.8931 26.3998 20.0486 26.1263 20.1523C25.8526 20.2558 25.5748 20.3075 25.293 20.3075C25.0112 20.3075 24.7335 20.2558 24.46 20.1523Z" fill="#10C504"></path>
</svg>