<svg width="24" height="24" viewBox="0 0 24 24" fill="none" xmlns="http://www.w3.org/2000/svg">
<path d="M12 23C13.241 23 14.2564 21.9846 14.2564 20.7436H9.74361C9.74361 21.9846 10.7477 23 12 23ZM18.7692 16.2308V10.5897C18.7692 7.12615 16.919 4.22667 13.6923 3.45949V2.69231C13.6923 1.7559 12.9364 1 12 1C11.0636 1 10.3077 1.7559 10.3077 2.69231V3.45949C7.06976 4.22667 5.23079 7.11487 5.23079 10.5897V16.2308L3.77541 17.6862C3.06464 18.3969 3.56105 19.6154 4.56515 19.6154H19.4236C20.4277 19.6154 20.9354 18.3969 20.2246 17.6862L18.7692 16.2308Z" fill="black"></path>
</svg>