<svg width="24" height="24" viewBox="0 0 24 24" fill="none" xmlns="http://www.w3.org/2000/svg">
<path d="M18.0428 3.08777C18.8266 2.30409 20.0969 2.30407 20.8807 3.08777C21.6645 3.87155 21.6644 5.14184 20.8807 5.92566L14.8153 11.9901L20.912 18.0868C21.6954 18.8702 21.6954 20.1403 20.912 20.9237C20.1285 21.7071 18.8585 21.7071 18.0751 20.9237L11.9784 14.827L5.92662 20.8807C5.1428 21.6646 3.87157 21.6646 3.08775 20.8807C2.30406 20.097 2.30411 18.8267 3.08775 18.0429L9.14049 11.9891L3.0897 5.93836C2.30628 5.15493 2.30628 3.88487 3.0897 3.10144C3.87314 2.31806 5.14321 2.31803 5.92662 3.10144L11.9774 9.15223L18.0428 3.08777Z" fill="black"></path>
</svg>