<svg width="24" height="24" viewBox="0 0 24 24" fill="none" xmlns="http://www.w3.org/2000/svg">
<path d="M11.6333 22.0631C11.5173 22.0445 11.4013 22.0165 11.2853 21.9791C9.00742 21.2213 7.18984 19.808 5.8325 17.7391C4.47534 15.6701 3.79675 13.4571 3.79675 11.0999V6.42864C3.79675 5.9523 3.9335 5.52355 4.207 5.14239C4.48067 4.76122 4.837 4.48564 5.276 4.31564L11.2043 2.09564C11.4656 2.0003 11.7308 1.95264 12 1.95264C12.2692 1.95264 12.5344 2.0003 12.7958 2.09564L18.724 4.31564C19.163 4.48564 19.5193 4.76122 19.793 5.14239C20.0665 5.52355 20.2033 5.9523 20.2033 6.42864V11.0999C20.2033 13.4571 19.5247 15.6701 18.1675 17.7391C16.8102 19.808 14.9926 21.2213 12.7148 21.9791C12.5988 22.0165 12.4828 22.0445 12.3668 22.0631C12.2509 22.0818 12.1287 22.0911 12 22.0911C11.8713 22.0911 11.7491 22.0818 11.6333 22.0631Z" fill="#A4A4A4"></path>
</svg>