<svg width="24" height="24" viewBox="0 0 24 24" fill="none" xmlns="http://www.w3.org/2000/svg">
<g clip-path="url(#clip0_7912_2294)">
<path d="M1.0418 22.4783C0.72263 22.4783 0.453297 22.3685 0.233797 22.149C0.0141302 21.9293 -0.0957031 21.6599 -0.0957031 21.3408V20.8075C-0.0957031 20.271 0.0999635 19.8041 0.491297 19.4068C0.88263 19.0096 1.41963 18.7153 2.1023 18.524C2.4838 18.4065 2.83263 18.3374 3.1488 18.3167C3.4648 18.2962 3.80088 18.2967 4.15705 18.318C4.34371 18.3267 4.48155 18.4118 4.57055 18.5735C4.65938 18.735 4.66846 18.9028 4.5978 19.0768C4.48913 19.3434 4.4098 19.6153 4.3598 19.8923C4.3098 20.1691 4.2848 20.4575 4.2848 20.7575V21.3408C4.2848 21.6599 4.17505 21.9293 3.95555 22.149C3.73588 22.3685 3.46646 22.4783 3.1473 22.4783H1.0418ZM7.0418 22.4783C6.72263 22.4783 6.4533 22.3685 6.2338 22.149C6.01413 21.9293 5.9043 21.6599 5.9043 21.3408V20.7575C5.9043 19.6463 6.46746 18.7484 7.5938 18.0637C8.72013 17.3792 10.1889 17.037 12 17.037C13.8279 17.037 15.3008 17.3792 16.4188 18.0637C17.5368 18.7484 18.0958 19.6463 18.0958 20.7575V21.3408C18.0958 21.6599 17.986 21.9293 17.7663 22.149C17.5468 22.3685 17.2775 22.4783 16.9583 22.4783H7.0418ZM20.8528 22.4783C20.5336 22.4783 20.2642 22.3685 20.0445 22.149C19.825 21.9293 19.7153 21.6599 19.7153 21.3408V20.7575C19.7153 20.4575 19.6903 20.1691 19.6403 19.8923C19.5903 19.6153 19.511 19.3434 19.4023 19.0768C19.3316 18.9028 19.3407 18.735 19.4295 18.5735C19.5185 18.4118 19.6564 18.3267 19.843 18.318C20.1992 18.2967 20.5353 18.2962 20.8513 18.3167C21.1675 18.3374 21.5163 18.4065 21.8978 18.524C22.5805 18.7153 23.1175 19.0096 23.5088 19.4068C23.9001 19.8041 24.0958 20.271 24.0958 20.8075V21.3408C24.0958 21.6599 23.986 21.9293 23.7663 22.149C23.5468 22.3685 23.2775 22.4783 22.9583 22.4783H20.8528ZM4.00005 17.311C3.43405 17.311 2.9493 17.1092 2.5458 16.7055C2.14213 16.3018 1.9403 15.817 1.9403 15.251C1.9403 14.6685 2.14213 14.1796 2.5458 13.7843C2.9493 13.3889 3.43405 13.1912 4.00005 13.1912C4.58271 13.1912 5.07163 13.3889 5.4668 13.7843C5.86213 14.1796 6.0598 14.6685 6.0598 15.251C6.0598 15.817 5.86213 16.3018 5.4668 16.7055C5.07163 17.1092 4.58271 17.311 4.00005 17.311ZM20 17.311C19.434 17.311 18.9493 17.1092 18.5458 16.7055C18.1421 16.3018 17.9403 15.817 17.9403 15.251C17.9403 14.6685 18.1421 14.1796 18.5458 13.7843C18.9493 13.3889 19.434 13.1912 20 13.1912C20.5827 13.1912 21.0716 13.3889 21.4668 13.7843C21.8621 14.1796 22.0598 14.6685 22.0598 15.251C22.0598 15.817 21.8621 16.3018 21.4668 16.7055C21.0716 17.1092 20.5827 17.311 20 17.311ZM12 16.293C11.1389 16.293 10.4076 15.9923 9.8063 15.391C9.20496 14.7898 8.9043 14.0586 8.9043 13.1973C8.9043 12.3234 9.20496 11.589 9.8063 10.994C10.4076 10.3992 11.1389 10.1018 12 10.1018C12.8739 10.1018 13.6083 10.3992 14.2033 10.994C14.7983 11.589 15.0958 12.3234 15.0958 13.1973C15.0958 14.0586 14.7983 14.7898 14.2033 15.391C13.6083 15.9923 12.8739 16.293 12 16.293ZM12 5.5C12.654 4.71267 13.455 4.09917 14.403 3.6595C15.351 3.21983 16.35 3 17.4 3C19.2334 3 20.7917 3.64167 22.075 4.925C23.3584 6.20833 24 7.76667 24 9.6C24 9.90867 23.9802 10.2142 23.9405 10.5165C23.9009 10.8188 23.8414 11.1181 23.762 11.4143C23.6747 11.7334 23.4965 11.9853 23.2273 12.1698C22.958 12.3544 22.6637 12.4011 22.3445 12.3098C22.038 12.2311 21.805 12.0582 21.6455 11.791C21.4859 11.5238 21.4517 11.237 21.543 10.9305C21.6057 10.717 21.6517 10.4994 21.681 10.2777C21.7104 10.0559 21.725 9.83 21.725 9.6C21.725 8.39633 21.3051 7.37458 20.4653 6.53475C19.6255 5.69492 18.6037 5.275 17.4 5.275C16.5152 5.275 15.7048 5.51225 14.9688 5.98675C14.2328 6.46108 13.5727 7.03233 12.9885 7.7005C12.7194 8.00783 12.3889 8.1615 11.997 8.1615C11.6052 8.1615 11.2767 8.00783 11.0115 7.7005C10.44 7.03233 9.78313 6.46108 9.0408 5.98675C8.29846 5.51225 7.48488 5.275 6.60005 5.275C5.39638 5.275 4.37463 5.69492 3.5348 6.53475C2.69496 7.37458 2.27505 8.39633 2.27505 9.6C2.27505 9.83 2.29071 10.0559 2.32205 10.2777C2.35338 10.4994 2.39838 10.719 2.45705 10.9365C2.53171 11.2263 2.48921 11.4987 2.32955 11.7535C2.17005 12.0083 1.94538 12.1751 1.65555 12.2537C1.33638 12.3451 1.04313 12.3088 0.775797 12.1448C0.50863 11.9809 0.32938 11.7393 0.238047 11.42C0.154714 11.124 0.0942135 10.8238 0.0565469 10.5195C0.0188802 10.2152 4.68745e-05 9.90867 4.68745e-05 9.6C4.68745e-05 7.76667 0.641714 6.20833 1.92505 4.925C3.20838 3.64167 4.76671 3 6.60005 3C7.65005 3 8.64905 3.21983 9.59705 3.6595C10.545 4.09917 11.346 4.71267 12 5.5Z" fill="#FF8900"></path>
</g>
<defs>
<clipPath id="clip0_7912_2294">
<rect width="24" height="24" fill="white"></rect>
</clipPath>
</defs>
</svg>