<svg width="326" height="428" viewBox="0 0 326 428" fill="none" xmlns="http://www.w3.org/2000/svg">
<path d="M317 1L317.36 1.00879C321.059 1.19633 324 4.25486 324 8V44C324 47.866 320.866 51 317 51H9C5.13401 51 2 47.866 2 44V8C2 4.13401 5.13401 1 9 1H317Z" fill="white"></path>
<path d="M317 1L317.36 1.00879C321.059 1.19633 324 4.25486 324 8V44C324 47.866 320.866 51 317 51H9C5.13401 51 2 47.866 2 44V8C2 4.13401 5.13401 1 9 1H317Z" stroke="black" stroke-width="2"></path>
<path d="M15.64 23.568C15.64 22.8853 15.8107 22.288 16.152 21.776C16.504 21.2533 16.9893 20.848 17.608 20.56C18.2267 20.272 18.9413 20.128 19.752 20.128C20.5307 20.128 21.2027 20.2667 21.768 20.544C22.344 20.8107 22.792 21.2 23.112 21.712C23.4427 22.2133 23.6187 22.8107 23.64 23.504H21.72C21.688 22.9813 21.496 22.576 21.144 22.288C20.792 21.9893 20.3173 21.84 19.72 21.84C19.0693 21.84 18.5467 21.9893 18.152 22.288C17.7573 22.5867 17.56 22.992 17.56 23.504C17.56 23.9307 17.6773 24.272 17.912 24.528C18.1573 24.784 18.5307 24.9653 19.032 25.072L20.904 25.504C21.8853 25.7173 22.616 26.0853 23.096 26.608C23.5867 27.12 23.832 27.808 23.832 28.672C23.832 29.376 23.656 29.9947 23.304 30.528C22.9627 31.0613 22.472 31.4773 21.832 31.776C21.2027 32.064 20.4613 32.208 19.608 32.208C18.7973 32.208 18.0827 32.0693 17.464 31.792C16.8453 31.5147 16.3653 31.1253 16.024 30.624C15.6827 30.112 15.5013 29.5147 15.48 28.832H17.416C17.4267 29.344 17.624 29.7493 18.008 30.048C18.4027 30.336 18.9413 30.48 19.624 30.48C20.3173 30.48 20.872 30.3307 21.288 30.032C21.704 29.7333 21.912 29.3333 21.912 28.832C21.912 28.416 21.8 28.0853 21.576 27.84C21.352 27.584 20.9893 27.4027 20.488 27.296L18.632 26.88C17.64 26.6667 16.8933 26.2827 16.392 25.728C15.8907 25.1733 15.64 24.4533 15.64 23.568ZM28.9343 32.208C28.1556 32.208 27.4676 32.032 26.8703 31.68C26.2729 31.3173 25.8036 30.8267 25.4622 30.208C25.1209 29.5893 24.9503 28.8693 24.9503 28.048C24.9503 27.2267 25.1156 26.5067 25.4463 25.888C25.7769 25.2587 26.2356 24.768 26.8223 24.416C27.4196 24.064 28.1023 23.888 28.8703 23.888C29.6489 23.888 30.3209 24.0533 30.8863 24.384C31.4623 24.704 31.9049 25.1627 32.2143 25.76C32.5343 26.3573 32.6943 27.0613 32.6943 27.872V28.464L25.9263 28.48L25.9583 27.296H30.8703C30.8703 26.72 30.6889 26.2613 30.3263 25.92C29.9636 25.568 29.4836 25.392 28.8863 25.392C28.4063 25.392 28.0063 25.4933 27.6863 25.696C27.3663 25.8987 27.1209 26.1973 26.9503 26.592C26.7796 26.976 26.6943 27.4507 26.6943 28.016C26.6943 28.8907 26.8863 29.5573 27.2703 30.016C27.6543 30.464 28.2196 30.688 28.9663 30.688C29.5103 30.688 29.9583 30.5867 30.3103 30.384C30.6623 30.1707 30.8916 29.8667 30.9983 29.472H32.7103C32.5396 30.3253 32.1183 30.9973 31.4463 31.488C30.7849 31.968 29.9476 32.208 28.9343 32.208ZM36.146 32H34.306V20.128H36.146V32ZM41.7311 32.208C40.9525 32.208 40.2645 32.032 39.6671 31.68C39.0698 31.3173 38.6005 30.8267 38.2591 30.208C37.9178 29.5893 37.7471 28.8693 37.7471 28.048C37.7471 27.2267 37.9125 26.5067 38.2431 25.888C38.5738 25.2587 39.0325 24.768 39.6191 24.416C40.2165 24.064 40.8991 23.888 41.6671 23.888C42.4458 23.888 43.1178 24.0533 43.6831 24.384C44.2591 24.704 44.7018 25.1627 45.0111 25.76C45.3311 26.3573 45.4911 27.0613 45.4911 27.872V28.464L38.7231 28.48L38.7551 27.296H43.6671C43.6671 26.72 43.4858 26.2613 43.1231 25.92C42.7605 25.568 42.2805 25.392 41.6831 25.392C41.2031 25.392 40.8031 25.4933 40.4831 25.696C40.1631 25.8987 39.9178 26.1973 39.7471 26.592C39.5765 26.976 39.4911 27.4507 39.4911 28.016C39.4911 28.8907 39.6831 29.5573 40.0671 30.016C40.4511 30.464 41.0165 30.688 41.7631 30.688C42.3071 30.688 42.7551 30.5867 43.1071 30.384C43.4591 30.1707 43.6885 29.8667 43.7951 29.472H45.5071C45.3365 30.3253 44.9151 30.9973 44.2431 31.488C43.5818 31.968 42.7445 32.208 41.7311 32.208ZM46.5909 28.048C46.5909 27.2267 46.7562 26.5067 47.0869 25.888C47.4282 25.2587 47.8922 24.768 48.4789 24.416C49.0655 24.064 49.7482 23.888 50.5269 23.888C51.5829 23.888 52.4469 24.1653 53.1189 24.72C53.8015 25.264 54.1962 26 54.3029 26.928H52.4629C52.3455 26.4587 52.1215 26.1067 51.7909 25.872C51.4709 25.6373 51.0709 25.52 50.5909 25.52C50.1642 25.52 49.7855 25.6267 49.4549 25.84C49.1349 26.0427 48.8842 26.3307 48.7029 26.704C48.5215 27.0773 48.4309 27.5253 48.4309 28.048C48.4309 28.56 48.5162 29.0027 48.6869 29.376C48.8575 29.7493 49.0975 30.0427 49.4069 30.256C49.7269 30.4587 50.1002 30.56 50.5269 30.56C51.0389 30.56 51.4602 30.4373 51.7909 30.192C52.1322 29.9467 52.3615 29.6053 52.4789 29.168H54.3189C54.2335 29.7653 54.0202 30.2933 53.6789 30.752C53.3375 31.2 52.8949 31.5573 52.3509 31.824C51.8069 32.08 51.1989 32.208 50.5269 32.208C49.7375 32.208 49.0442 32.0373 48.4469 31.696C47.8602 31.344 47.4015 30.8587 47.0709 30.24C46.7509 29.6107 46.5909 28.88 46.5909 28.048ZM55.0053 24.112H59.8693V25.648H55.0053V24.112ZM59.8373 30.4L60.0613 31.904C59.6239 32.0853 59.1386 32.176 58.6053 32.176C58.1146 32.176 57.6933 32.0907 57.3413 31.92C56.9893 31.7387 56.7119 31.456 56.5093 31.072C56.3173 30.688 56.2213 30.1973 56.2213 29.6V21.648H58.0613V29.28C58.0613 29.7493 58.1519 30.08 58.3333 30.272C58.5253 30.4533 58.7653 30.544 59.0533 30.544C59.2986 30.544 59.5599 30.496 59.8373 30.4ZM69.2311 32.208C68.4525 32.208 67.7645 32.032 67.1671 31.68C66.5698 31.3173 66.1005 30.8267 65.7591 30.208C65.4178 29.5893 65.2471 28.8693 65.2471 28.048C65.2471 27.2267 65.4125 26.5067 65.7431 25.888C66.0738 25.2587 66.5325 24.768 67.1191 24.416C67.7165 24.064 68.3991 23.888 69.1671 23.888C69.9458 23.888 70.6178 24.0533 71.1831 24.384C71.7591 24.704 72.2018 25.1627 72.5111 25.76C72.8311 26.3573 72.9911 27.0613 72.9911 27.872V28.464L66.2231 28.48L66.2551 27.296H71.1671C71.1671 26.72 70.9858 26.2613 70.6231 25.92C70.2605 25.568 69.7805 25.392 69.1831 25.392C68.7031 25.392 68.3031 25.4933 67.9831 25.696C67.6631 25.8987 67.4178 26.1973 67.2471 26.592C67.0765 26.976 66.9911 27.4507 66.9911 28.016C66.9911 28.8907 67.1831 29.5573 67.5671 30.016C67.9511 30.464 68.5165 30.688 69.2631 30.688C69.8071 30.688 70.2551 30.5867 70.6071 30.384C70.9591 30.1707 71.1885 29.8667 71.2951 29.472H73.0071C72.8365 30.3253 72.4151 30.9973 71.7431 31.488C71.0818 31.968 70.2445 32.208 69.2311 32.208ZM76.4109 32H74.5869V24.112H76.2669L76.4909 25.536L76.2669 25.344C76.4269 24.9493 76.7202 24.608 77.1469 24.32C77.5735 24.032 78.1069 23.888 78.7469 23.888C79.4402 23.888 80.0109 24.0693 80.4589 24.432C80.9069 24.7947 81.2109 25.28 81.3709 25.888H81.0509C81.1682 25.28 81.4669 24.7947 81.9469 24.432C82.4375 24.0693 83.0295 23.888 83.7229 23.888C84.6722 23.888 85.4029 24.1547 85.9149 24.688C86.4269 25.2107 86.6829 25.9307 86.6829 26.848V32H84.8589V27.312C84.8589 26.736 84.7149 26.2987 84.4269 26C84.1389 25.6907 83.7549 25.536 83.2749 25.536C82.9442 25.536 82.6509 25.6107 82.3949 25.76C82.1389 25.8987 81.9309 26.112 81.7709 26.4C81.6215 26.688 81.5469 27.0507 81.5469 27.488V32H79.7229V27.312C79.7229 26.736 79.5789 26.2987 79.2909 26C79.0135 25.7013 78.6295 25.552 78.1389 25.552C77.8189 25.552 77.5255 25.6267 77.2589 25.776C77.0029 25.9147 76.7949 26.128 76.6349 26.416C76.4855 26.704 76.4109 27.056 76.4109 27.472V32ZM88.665 35.616V24.112H90.345L90.473 25.36C90.7183 24.8907 91.0863 24.528 91.577 24.272C92.0677 24.016 92.6117 23.888 93.209 23.888C93.9663 23.888 94.617 24.0587 95.161 24.4C95.7157 24.7413 96.1423 25.216 96.441 25.824C96.7503 26.432 96.905 27.152 96.905 27.984C96.905 28.7947 96.761 29.52 96.473 30.16C96.185 30.7893 95.7637 31.2907 95.209 31.664C94.665 32.0267 94.0037 32.208 93.225 32.208C92.6277 32.208 92.0837 32.0907 91.593 31.856C91.113 31.6213 90.745 31.296 90.489 30.88V35.616H88.665ZM90.505 28.064C90.505 28.544 90.5957 28.976 90.777 29.36C90.969 29.7333 91.2357 30.0267 91.577 30.24C91.929 30.4533 92.3343 30.56 92.793 30.56C93.273 30.56 93.6783 30.4533 94.009 30.24C94.3397 30.016 94.5957 29.7173 94.777 29.344C94.9583 28.9707 95.049 28.544 95.049 28.064C95.049 27.5733 94.9583 27.1413 94.777 26.768C94.5957 26.3947 94.3397 26.1013 94.009 25.888C93.6783 25.6747 93.273 25.568 92.793 25.568C92.3343 25.568 91.929 25.6747 91.577 25.888C91.2357 26.0907 90.969 26.3787 90.777 26.752C90.5957 27.1253 90.505 27.5627 90.505 28.064ZM100.349 32H98.5091V20.128H100.349V32ZM101.95 28.048C101.95 27.2267 102.132 26.5067 102.494 25.888C102.857 25.2587 103.353 24.768 103.982 24.416C104.622 24.064 105.342 23.888 106.142 23.888C106.953 23.888 107.673 24.064 108.302 24.416C108.932 24.768 109.428 25.2587 109.79 25.888C110.153 26.5067 110.334 27.2267 110.334 28.048C110.334 28.8587 110.153 29.5787 109.79 30.208C109.428 30.8267 108.932 31.312 108.302 31.664C107.673 32.016 106.953 32.192 106.142 32.192C105.342 32.192 104.622 32.016 103.982 31.664C103.353 31.312 102.857 30.8267 102.494 30.208C102.132 29.5787 101.95 28.8587 101.95 28.048ZM103.806 28.032C103.806 28.5333 103.902 28.976 104.094 29.36C104.297 29.7333 104.574 30.0267 104.926 30.24C105.278 30.4427 105.684 30.544 106.142 30.544C106.612 30.544 107.017 30.4427 107.358 30.24C107.71 30.0267 107.982 29.7333 108.174 29.36C108.377 28.976 108.478 28.5333 108.478 28.032C108.478 27.5413 108.377 27.1093 108.174 26.736C107.982 26.3627 107.71 26.0693 107.358 25.856C107.017 25.6427 106.612 25.536 106.142 25.536C105.684 25.536 105.278 25.6427 104.926 25.856C104.574 26.0693 104.297 26.3627 104.094 26.736C103.902 27.1093 103.806 27.5413 103.806 28.032ZM112.658 24.112L115.282 31.488L114.242 33.312L110.706 24.112H112.658ZM110.914 35.616V34.096H112.05C112.295 34.096 112.514 34.0693 112.706 34.016C112.908 33.9627 113.084 33.856 113.234 33.696C113.394 33.536 113.532 33.3013 113.65 32.992L116.93 24.112H118.834L115.01 33.76C114.722 34.4747 114.359 34.992 113.922 35.312C113.495 35.6427 112.967 35.808 112.338 35.808C112.071 35.808 111.82 35.792 111.586 35.76C111.351 35.728 111.127 35.68 110.914 35.616ZM123.137 32.208C122.359 32.208 121.671 32.032 121.073 31.68C120.476 31.3173 120.007 30.8267 119.665 30.208C119.324 29.5893 119.153 28.8693 119.153 28.048C119.153 27.2267 119.319 26.5067 119.649 25.888C119.98 25.2587 120.439 24.768 121.025 24.416C121.623 24.064 122.305 23.888 123.073 23.888C123.852 23.888 124.524 24.0533 125.089 24.384C125.665 24.704 126.108 25.1627 126.417 25.76C126.737 26.3573 126.897 27.0613 126.897 27.872V28.464L120.129 28.48L120.161 27.296H125.073C125.073 26.72 124.892 26.2613 124.529 25.92C124.167 25.568 123.687 25.392 123.089 25.392C122.609 25.392 122.209 25.4933 121.889 25.696C121.569 25.8987 121.324 26.1973 121.153 26.592C120.983 26.976 120.897 27.4507 120.897 28.016C120.897 28.8907 121.089 29.5573 121.473 30.016C121.857 30.464 122.423 30.688 123.169 30.688C123.713 30.688 124.161 30.5867 124.513 30.384C124.865 30.1707 125.095 29.8667 125.201 29.472H126.913C126.743 30.3253 126.321 30.9973 125.649 31.488C124.988 31.968 124.151 32.208 123.137 32.208ZM131.981 32.208C131.202 32.208 130.514 32.032 129.917 31.68C129.32 31.3173 128.85 30.8267 128.509 30.208C128.168 29.5893 127.997 28.8693 127.997 28.048C127.997 27.2267 128.162 26.5067 128.493 25.888C128.824 25.2587 129.282 24.768 129.869 24.416C130.466 24.064 131.149 23.888 131.917 23.888C132.696 23.888 133.368 24.0533 133.933 24.384C134.509 24.704 134.952 25.1627 135.261 25.76C135.581 26.3573 135.741 27.0613 135.741 27.872V28.464L128.973 28.48L129.005 27.296H133.917C133.917 26.72 133.736 26.2613 133.373 25.92C133.01 25.568 132.53 25.392 131.933 25.392C131.453 25.392 131.053 25.4933 130.733 25.696C130.413 25.8987 130.168 26.1973 129.997 26.592C129.826 26.976 129.741 27.4507 129.741 28.016C129.741 28.8907 129.933 29.5573 130.317 30.016C130.701 30.464 131.266 30.688 132.013 30.688C132.557 30.688 133.005 30.5867 133.357 30.384C133.709 30.1707 133.938 29.8667 134.045 29.472H135.757C135.586 30.3253 135.165 30.9973 134.493 31.488C133.832 31.968 132.994 32.208 131.981 32.208Z" fill="#8A8A8A"></path>
<path fill-rule="evenodd" clip-rule="evenodd" d="M309.624 26.7023C310.046 27.1072 310.092 27.8075 309.734 28.2748C309.367 28.7534 308.71 28.8137 308.277 28.3977L304.987 25.2434L301.698 28.3977C301.264 28.8137 300.607 28.7534 300.24 28.2748C299.882 27.8075 299.928 27.1072 300.35 26.7023L303.945 23.2551C304.543 22.6819 305.432 22.6819 306.029 23.2551L309.624 26.7023Z" fill="black"></path>
<g filter="url(#filter0_d_8075_7533)">
<g clip-path="url(#clip0_8075_7533)">
<path d="M3 66C3 59.3726 8.37258 54 15 54H311C317.627 54 323 59.3726 323 66V412C323 418.627 317.627 424 311 424H15C8.37259 424 3 418.627 3 412V66Z" fill="white"></path>
<g clip-path="url(#clip1_8075_7533)">
<path d="M15 85C15 74.5066 23.5066 66 34 66H292C302.493 66 311 74.5066 311 85V85C311 95.4934 302.493 104 292 104H34C23.5066 104 15 95.4934 15 85V85Z" fill="#F8F8F8"></path>
<path fill-rule="evenodd" clip-rule="evenodd" d="M25.9375 83.7557C25.9375 80.6474 28.4485 78.125 31.5493 78.125C34.6501 78.125 37.1611 80.6474 37.1611 83.7557C37.1611 85.0318 36.7375 86.2098 36.0238 87.1544L38.8132 90.1445C39.173 90.5439 39.1394 91.161 38.7381 91.5187L38.6131 91.6302C38.2164 91.9838 37.6097 91.9504 37.254 91.5555L34.466 88.567C33.616 89.0868 32.6172 89.3863 31.5493 89.3863C28.4485 89.3863 25.9375 86.8639 25.9375 83.7557ZM31.5493 80.2301C29.6116 80.2301 28.0382 81.8071 28.0382 83.7557C28.0382 85.7042 29.6116 87.2812 31.5493 87.2812C33.487 87.2812 35.0605 85.7042 35.0605 83.7557C35.0605 81.8071 33.487 80.2301 31.5493 80.2301Z" fill="#666875"></path>
<path d="M50.56 82.622C50.56 82.0247 50.7093 81.502 51.008 81.054C51.316 80.5967 51.7407 80.242 52.282 79.99C52.8233 79.738 53.4487 79.612 54.158 79.612C54.8393 79.612 55.4273 79.7333 55.922 79.976C56.426 80.2093 56.818 80.55 57.098 80.998C57.3873 81.4367 57.5413 81.9593 57.56 82.566H55.88C55.852 82.1087 55.684 81.754 55.376 81.502C55.068 81.2407 54.6527 81.11 54.13 81.11C53.5607 81.11 53.1033 81.2407 52.758 81.502C52.4127 81.7633 52.24 82.118 52.24 82.566C52.24 82.9393 52.3427 83.238 52.548 83.462C52.7627 83.686 53.0893 83.8447 53.528 83.938L55.166 84.316C56.0247 84.5027 56.664 84.8247 57.084 85.282C57.5133 85.73 57.728 86.332 57.728 87.088C57.728 87.704 57.574 88.2453 57.266 88.712C56.9673 89.1787 56.538 89.5427 55.978 89.804C55.4273 90.056 54.7787 90.182 54.032 90.182C53.3227 90.182 52.6973 90.0607 52.156 89.818C51.6147 89.5753 51.1947 89.2347 50.896 88.796C50.5973 88.348 50.4387 87.8253 50.42 87.228H52.114C52.1233 87.676 52.296 88.0307 52.632 88.292C52.9773 88.544 53.4487 88.67 54.046 88.67C54.6527 88.67 55.138 88.5393 55.502 88.278C55.866 88.0167 56.048 87.6667 56.048 87.228C56.048 86.864 55.95 86.5747 55.754 86.36C55.558 86.136 55.2407 85.9773 54.802 85.884L53.178 85.52C52.31 85.3333 51.6567 84.9973 51.218 84.512C50.7793 84.0267 50.56 83.3967 50.56 82.622ZM62.1925 90.182C61.5111 90.182 60.9091 90.028 60.3865 89.72C59.8638 89.4027 59.4531 88.9733 59.1545 88.432C58.8558 87.8907 58.7065 87.2607 58.7065 86.542C58.7065 85.8233 58.8511 85.1933 59.1405 84.652C59.4298 84.1013 59.8311 83.672 60.3445 83.364C60.8671 83.056 61.4645 82.902 62.1365 82.902C62.8178 82.902 63.4058 83.0467 63.9005 83.336C64.4045 83.616 64.7918 84.0173 65.0625 84.54C65.3425 85.0627 65.4825 85.6787 65.4825 86.388V86.906L59.5605 86.92L59.5885 85.884H63.8865C63.8865 85.38 63.7278 84.9787 63.4105 84.68C63.0931 84.372 62.6731 84.218 62.1505 84.218C61.7305 84.218 61.3805 84.3067 61.1005 84.484C60.8205 84.6613 60.6058 84.9227 60.4565 85.268C60.3071 85.604 60.2325 86.0193 60.2325 86.514C60.2325 87.2793 60.4005 87.8627 60.7365 88.264C61.0725 88.656 61.5671 88.852 62.2205 88.852C62.6965 88.852 63.0885 88.7633 63.3965 88.586C63.7045 88.3993 63.9051 88.1333 63.9985 87.788H65.4965C65.3471 88.5347 64.9785 89.1227 64.3905 89.552C63.8118 89.972 63.0791 90.182 62.1925 90.182ZM72.2268 83.098H73.6827V90H72.1848L72.0728 88.88C71.8488 89.2533 71.5314 89.566 71.1208 89.818C70.7101 90.0607 70.2248 90.182 69.6647 90.182C68.9928 90.182 68.4141 90.0233 67.9288 89.706C67.4434 89.3793 67.0748 88.9407 66.8228 88.39C66.5708 87.83 66.4448 87.1953 66.4448 86.486C66.4448 85.758 66.5801 85.128 66.8508 84.596C67.1214 84.064 67.4994 83.6487 67.9848 83.35C68.4794 83.0513 69.0488 82.902 69.6928 82.902C70.2061 82.902 70.6868 83.014 71.1348 83.238C71.5828 83.4527 71.9141 83.7793 72.1288 84.218L72.2268 83.098ZM72.0448 86.556C72.0448 86.1173 71.9608 85.7347 71.7928 85.408C71.6341 85.0813 71.4054 84.8293 71.1068 84.652C70.8174 84.4653 70.4628 84.372 70.0428 84.372C69.6414 84.372 69.2914 84.4653 68.9928 84.652C68.6941 84.8387 68.4654 85.0953 68.3068 85.422C68.1481 85.7487 68.0688 86.1267 68.0688 86.556C68.0688 86.976 68.1481 87.354 68.3068 87.69C68.4654 88.0167 68.6894 88.2733 68.9788 88.46C69.2774 88.6467 69.6321 88.74 70.0428 88.74C70.4534 88.74 70.8081 88.6467 71.1068 88.46C71.4054 88.2733 71.6341 88.0167 71.7928 87.69C71.9608 87.354 72.0448 86.976 72.0448 86.556ZM79.7337 83.07V84.554H79.1037C78.4877 84.554 77.9977 84.7267 77.6337 85.072C77.279 85.408 77.1017 85.912 77.1017 86.584V90H75.5057V83.112H77.0037L77.1437 84.526H76.9897C77.083 84.078 77.3024 83.7093 77.6477 83.42C77.993 83.1213 78.441 82.972 78.9917 82.972C79.113 82.972 79.2297 82.9813 79.3417 83C79.463 83.0093 79.5937 83.0327 79.7337 83.07ZM80.2533 86.542C80.2533 85.8233 80.398 85.1933 80.6873 84.652C80.986 84.1013 81.392 83.672 81.9053 83.364C82.4187 83.056 83.016 82.902 83.6973 82.902C84.6213 82.902 85.3773 83.1447 85.9653 83.63C86.5627 84.106 86.908 84.75 87.0013 85.562H85.3913C85.2887 85.1513 85.0927 84.8433 84.8033 84.638C84.5233 84.4327 84.1733 84.33 83.7533 84.33C83.38 84.33 83.0487 84.4233 82.7593 84.61C82.4793 84.7873 82.26 85.0393 82.1013 85.366C81.9427 85.6927 81.8633 86.0847 81.8633 86.542C81.8633 86.99 81.938 87.3773 82.0873 87.704C82.2367 88.0307 82.4467 88.2873 82.7173 88.474C82.9973 88.6513 83.324 88.74 83.6973 88.74C84.1453 88.74 84.514 88.6327 84.8033 88.418C85.102 88.2033 85.3027 87.9047 85.4053 87.522H87.0153C86.9407 88.0447 86.754 88.5067 86.4553 88.908C86.1567 89.3 85.7693 89.6127 85.2933 89.846C84.8173 90.07 84.2853 90.182 83.6973 90.182C83.0067 90.182 82.4 90.0327 81.8773 89.734C81.364 89.426 80.9627 89.0013 80.6733 88.46C80.3933 87.9093 80.2533 87.27 80.2533 86.542ZM89.9259 90H88.3299V79.612H89.9399V84.036C90.1546 83.6907 90.4579 83.4153 90.8499 83.21C91.2419 83.0047 91.6899 82.902 92.1939 82.902C93.0526 82.902 93.7013 83.1587 94.1399 83.672C94.5786 84.176 94.7979 84.8713 94.7979 85.758V90H93.1879V86.136C93.1879 85.7253 93.1273 85.394 93.0059 85.142C92.8846 84.8807 92.7119 84.6847 92.4879 84.554C92.2639 84.4233 92.0026 84.358 91.7039 84.358C91.3306 84.358 91.0086 84.442 90.7379 84.61C90.4766 84.7687 90.2759 84.988 90.1359 85.268C89.9959 85.548 89.9259 85.87 89.9259 86.234V90ZM105.654 83.098H107.11V90H105.612L105.5 88.88C105.276 89.2533 104.959 89.566 104.548 89.818C104.138 90.0607 103.652 90.182 103.092 90.182C102.42 90.182 101.842 90.0233 101.356 89.706C100.871 89.3793 100.502 88.9407 100.25 88.39C99.9985 87.83 99.8725 87.1953 99.8725 86.486C99.8725 85.758 100.008 85.128 100.278 84.596C100.549 84.064 100.927 83.6487 101.412 83.35C101.907 83.0513 102.476 82.902 103.12 82.902C103.634 82.902 104.114 83.014 104.562 83.238C105.01 83.4527 105.342 83.7793 105.556 84.218L105.654 83.098ZM105.472 86.556C105.472 86.1173 105.388 85.7347 105.22 85.408C105.062 85.0813 104.833 84.8293 104.534 84.652C104.245 84.4653 103.89 84.372 103.47 84.372C103.069 84.372 102.719 84.4653 102.42 84.652C102.122 84.8387 101.893 85.0953 101.734 85.422C101.576 85.7487 101.496 86.1267 101.496 86.556C101.496 86.976 101.576 87.354 101.734 87.69C101.893 88.0167 102.117 88.2733 102.406 88.46C102.705 88.6467 103.06 88.74 103.47 88.74C103.881 88.74 104.236 88.6467 104.534 88.46C104.833 88.2733 105.062 88.0167 105.22 87.69C105.388 87.354 105.472 86.976 105.472 86.556ZM113.161 83.07V84.554H112.531C111.915 84.554 111.425 84.7267 111.061 85.072C110.707 85.408 110.529 85.912 110.529 86.584V90H108.933V83.112H110.431L110.571 84.526H110.417C110.511 84.078 110.73 83.7093 111.075 83.42C111.421 83.1213 111.869 82.972 112.419 82.972C112.541 82.972 112.657 82.9813 112.769 83C112.891 83.0093 113.021 83.0327 113.161 83.07ZM117.167 90.182C116.486 90.182 115.884 90.028 115.361 89.72C114.838 89.4027 114.428 88.9733 114.129 88.432C113.83 87.8907 113.681 87.2607 113.681 86.542C113.681 85.8233 113.826 85.1933 114.115 84.652C114.404 84.1013 114.806 83.672 115.319 83.364C115.842 83.056 116.439 82.902 117.111 82.902C117.792 82.902 118.38 83.0467 118.875 83.336C119.379 83.616 119.766 84.0173 120.037 84.54C120.317 85.0627 120.457 85.6787 120.457 86.388V86.906L114.535 86.92L114.563 85.884H118.861C118.861 85.38 118.702 84.9787 118.385 84.68C118.068 84.372 117.648 84.218 117.125 84.218C116.705 84.218 116.355 84.3067 116.075 84.484C115.795 84.6613 115.58 84.9227 115.431 85.268C115.282 85.604 115.207 86.0193 115.207 86.514C115.207 87.2793 115.375 87.8627 115.711 88.264C116.047 88.656 116.542 88.852 117.195 88.852C117.671 88.852 118.063 88.7633 118.371 88.586C118.679 88.3993 118.88 88.1333 118.973 87.788H120.471C120.322 88.5347 119.953 89.1227 119.365 89.552C118.786 89.972 118.054 90.182 117.167 90.182ZM127.201 83.098H128.657V90H127.159L127.047 88.88C126.823 89.2533 126.506 89.566 126.095 89.818C125.685 90.0607 125.199 90.182 124.639 90.182C123.967 90.182 123.389 90.0233 122.903 89.706C122.418 89.3793 122.049 88.9407 121.797 88.39C121.545 87.83 121.419 87.1953 121.419 86.486C121.419 85.758 121.555 85.128 121.825 84.596C122.096 84.064 122.474 83.6487 122.959 83.35C123.454 83.0513 124.023 82.902 124.667 82.902C125.181 82.902 125.661 83.014 126.109 83.238C126.557 83.4527 126.889 83.7793 127.103 84.218L127.201 83.098ZM127.019 86.556C127.019 86.1173 126.935 85.7347 126.767 85.408C126.609 85.0813 126.38 84.8293 126.081 84.652C125.792 84.4653 125.437 84.372 125.017 84.372C124.616 84.372 124.266 84.4653 123.967 84.652C123.669 84.8387 123.44 85.0953 123.281 85.422C123.123 85.7487 123.043 86.1267 123.043 86.556C123.043 86.976 123.123 87.354 123.281 87.69C123.44 88.0167 123.664 88.2733 123.953 88.46C124.252 88.6467 124.607 88.74 125.017 88.74C125.428 88.74 125.783 88.6467 126.081 88.46C126.38 88.2733 126.609 88.0167 126.767 87.69C126.935 87.354 127.019 86.976 127.019 86.556Z" fill="#87898E"></path>
</g>
<path d="M292 65C303.046 65 312 73.9543 312 85C312 96.0457 303.046 105 292 105H34C22.9543 105 14 96.0457 14 85C14 73.9543 22.9543 65 34 65H292Z" stroke="#CBCBD0" stroke-width="2"></path>
<path d="M20.824 146H19.192L23.416 134.432H25.16L29.4 146H27.752L26.712 143.12H21.848L20.824 146ZM24.088 136.928L22.328 141.76H26.248L24.472 136.928C24.44 136.811 24.4027 136.693 24.36 136.576C24.3173 136.448 24.2907 136.341 24.28 136.256C24.2587 136.341 24.232 136.448 24.2 136.576C24.168 136.693 24.1307 136.811 24.088 136.928Z" fill="black"></path>
<path d="M21.912 182.432V194H20.344V182.432H21.912ZM24.888 188.896H21.48V187.536H24.76C25.4107 187.536 25.912 187.371 26.264 187.04C26.616 186.709 26.792 186.24 26.792 185.632C26.792 185.056 26.6053 184.613 26.232 184.304C25.8693 183.984 25.3467 183.824 24.664 183.824H21.208V182.432H24.76C25.8907 182.432 26.776 182.704 27.416 183.248C28.0667 183.792 28.392 184.539 28.392 185.488C28.392 186.203 28.216 186.8 27.864 187.28C27.5227 187.749 27.016 188.091 26.344 188.304V188.096C27.0907 188.277 27.6507 188.608 28.024 189.088C28.408 189.557 28.6 190.165 28.6 190.912C28.6 191.552 28.4507 192.107 28.152 192.576C27.864 193.035 27.4427 193.387 26.888 193.632C26.3333 193.877 25.6773 194 24.92 194H21.208V192.608H24.888C25.56 192.608 26.0773 192.443 26.44 192.112C26.8027 191.781 26.984 191.317 26.984 190.72C26.984 190.144 26.7973 189.696 26.424 189.376C26.0613 189.056 25.5493 188.896 24.888 188.896Z" fill="black"></path>
<path d="M25.144 242.176C24.0453 242.176 23.0853 241.931 22.264 241.44C21.4427 240.939 20.8027 240.245 20.344 239.36C19.8853 238.464 19.656 237.419 19.656 236.224C19.656 235.029 19.8907 233.984 20.36 233.088C20.8293 232.192 21.48 231.493 22.312 230.992C23.1547 230.491 24.1253 230.24 25.224 230.24C26.0987 230.24 26.888 230.405 27.592 230.736C28.296 231.056 28.8827 231.509 29.352 232.096C29.8213 232.683 30.1253 233.371 30.264 234.16H28.584C28.3707 233.403 27.96 232.811 27.352 232.384C26.744 231.957 26.0187 231.744 25.176 231.744C24.3973 231.744 23.7147 231.931 23.128 232.304C22.552 232.667 22.104 233.184 21.784 233.856C21.464 234.517 21.304 235.301 21.304 236.208C21.304 237.104 21.464 237.888 21.784 238.56C22.104 239.232 22.5573 239.755 23.144 240.128C23.7307 240.491 24.408 240.672 25.176 240.672C26.0293 240.672 26.7653 240.464 27.384 240.048C28.0133 239.621 28.4347 239.051 28.648 238.336H30.312C30.152 239.104 29.8267 239.776 29.336 240.352C28.856 240.928 28.2533 241.376 27.528 241.696C26.8133 242.016 26.0187 242.176 25.144 242.176Z" fill="black"></path>
<path d="M24.168 290H20.344V278.432H24.104C25.256 278.432 26.264 278.677 27.128 279.168C28.0027 279.648 28.68 280.325 29.16 281.2C29.6507 282.064 29.896 283.072 29.896 284.224C29.896 285.365 29.656 286.373 29.176 287.248C28.696 288.112 28.024 288.789 27.16 289.28C26.3067 289.76 25.3093 290 24.168 290ZM21.912 279.168V289.28L21.176 288.544H24.056C24.92 288.544 25.6613 288.368 26.28 288.016C26.9093 287.664 27.3947 287.168 27.736 286.528C28.088 285.877 28.264 285.109 28.264 284.224C28.264 283.328 28.088 282.555 27.736 281.904C27.3947 281.253 26.904 280.752 26.264 280.4C25.6347 280.048 24.8773 279.872 23.992 279.872H21.176L21.912 279.168Z" fill="black"></path>
<path d="M27.4 338H20.344V326.432H27.4V327.872H21.192L21.912 327.248V331.488H26.856V332.88H21.912V337.2L21.192 336.544H27.4V338Z" fill="black"></path>
<path d="M21.912 374.432V386H20.344V374.432H21.912ZM27.32 375.872H20.456V374.432H27.32V375.872ZM26.456 381.088H20.424V379.664H26.456V381.088Z" fill="black"></path>
<path d="M21.912 434H20.344V422.432H21.912L28.264 432.032H27.832V422.432H29.4V434H27.832L21.48 424.4H21.912V434ZM31.326 430.08C31.326 429.28 31.502 428.571 31.854 427.952C32.206 427.333 32.686 426.848 33.294 426.496C33.9127 426.144 34.6167 425.968 35.406 425.968C36.1953 425.968 36.894 426.144 37.502 426.496C38.11 426.848 38.59 427.333 38.942 427.952C39.294 428.571 39.47 429.28 39.47 430.08C39.47 430.88 39.294 431.589 38.942 432.208C38.59 432.827 38.11 433.312 37.502 433.664C36.894 434.016 36.1953 434.192 35.406 434.192C34.6167 434.192 33.9127 434.016 33.294 433.664C32.686 433.312 32.206 432.827 31.854 432.208C31.502 431.589 31.326 430.88 31.326 430.08ZM32.846 430.08C32.846 430.624 32.9527 431.104 33.166 431.52C33.39 431.936 33.694 432.261 34.078 432.496C34.462 432.731 34.9047 432.848 35.406 432.848C35.9073 432.848 36.35 432.731 36.734 432.496C37.118 432.261 37.4167 431.936 37.63 431.52C37.854 431.104 37.966 430.624 37.966 430.08C37.966 429.525 37.854 429.045 37.63 428.64C37.4167 428.224 37.118 427.899 36.734 427.664C36.35 427.429 35.9073 427.312 35.406 427.312C34.9047 427.312 34.462 427.429 34.078 427.664C33.694 427.899 33.39 428.224 33.166 428.64C32.9527 429.045 32.846 429.525 32.846 430.08ZM45.6149 426.112V427.488H44.9429C44.2282 427.488 43.6629 427.696 43.2469 428.112C42.8415 428.517 42.6389 429.099 42.6389 429.856V434H41.1349V426.192H42.5429L42.6709 427.76H42.5269C42.6335 427.248 42.8895 426.832 43.2949 426.512C43.7002 426.181 44.2069 426.016 44.8149 426.016C44.9535 426.016 45.0815 426.027 45.1989 426.048C45.3269 426.059 45.4655 426.08 45.6149 426.112ZM46.506 426.176H51.05V427.44H46.506V426.176ZM50.986 432.688L51.178 433.936C50.7727 434.096 50.3407 434.176 49.882 434.176C49.4233 434.176 49.034 434.091 48.714 433.92C48.394 433.739 48.1487 433.472 47.978 433.12C47.8073 432.768 47.722 432.331 47.722 431.808V423.728H49.226V431.6C49.226 432.048 49.3167 432.368 49.498 432.56C49.69 432.741 49.9353 432.832 50.234 432.832C50.4687 432.832 50.7193 432.784 50.986 432.688ZM54.2326 433.984H52.7286V422.224H54.2326V427.376C54.478 426.949 54.83 426.608 55.2886 426.352C55.7473 426.085 56.2806 425.952 56.8886 425.952C57.8806 425.952 58.622 426.245 59.1126 426.832C59.6033 427.419 59.8486 428.213 59.8486 429.216V434H58.3446V429.552C58.3446 429.019 58.2646 428.592 58.1046 428.272C57.9553 427.941 57.7366 427.701 57.4486 427.552C57.1713 427.403 56.846 427.328 56.4726 427.328C55.9926 427.328 55.582 427.435 55.2406 427.648C54.91 427.861 54.6593 428.149 54.4886 428.512C54.318 428.875 54.2326 429.28 54.2326 429.728V433.984ZM68.8988 434L65.4588 422.432H67.0908L69.2028 429.504C69.2881 429.803 69.3681 430.117 69.4427 430.448C69.5174 430.779 69.5974 431.163 69.6828 431.6C69.7788 431.131 69.8694 430.741 69.9548 430.432C70.0508 430.123 70.1414 429.813 70.2268 429.504L72.4188 422.432H74.1148L76.2908 429.504C76.3868 429.813 76.4774 430.133 76.5628 430.464C76.6481 430.795 76.7334 431.173 76.8188 431.6C76.9254 431.109 77.0161 430.704 77.0908 430.384C77.1761 430.064 77.2561 429.776 77.3308 429.52L79.4588 422.432H81.0588L77.5708 434H76.0668L73.2668 424.848L70.4348 434H68.8988ZM84.7453 434.192C83.9879 434.192 83.3159 434.021 82.7293 433.68C82.1426 433.328 81.6839 432.848 81.3533 432.24C81.0226 431.621 80.8573 430.907 80.8573 430.096C80.8573 429.275 81.0173 428.555 81.3372 427.936C81.6679 427.317 82.1159 426.832 82.6813 426.48C83.2573 426.128 83.9239 425.952 84.6813 425.952C85.4279 425.952 86.0733 426.112 86.6173 426.432C87.1719 426.752 87.5986 427.2 87.8973 427.776C88.2066 428.352 88.3612 429.029 88.3612 429.808V430.368L81.6573 430.384L81.6893 429.376H86.8573C86.8573 428.725 86.6599 428.203 86.2653 427.808C85.8706 427.413 85.3426 427.216 84.6813 427.216C84.1799 427.216 83.7479 427.328 83.3853 427.552C83.0333 427.765 82.7613 428.085 82.5693 428.512C82.3879 428.928 82.2973 429.429 82.2973 430.016C82.2973 430.955 82.5106 431.68 82.9373 432.192C83.3639 432.693 83.9773 432.944 84.7773 432.944C85.3639 432.944 85.8439 432.827 86.2173 432.592C86.5906 432.357 86.8413 432.016 86.9693 431.568H88.3773C88.1853 432.4 87.7746 433.045 87.1453 433.504C86.5159 433.963 85.7159 434.192 84.7453 434.192ZM89.4011 431.728H90.8411C90.8411 432.123 90.9851 432.437 91.2731 432.672C91.5611 432.896 91.9505 433.008 92.4411 433.008C92.9745 433.008 93.3851 432.907 93.6731 432.704C93.9611 432.491 94.1051 432.208 94.1051 431.856C94.1051 431.6 94.0251 431.387 93.8651 431.216C93.7158 431.045 93.4385 430.907 93.0331 430.8L91.6571 430.48C90.9638 430.309 90.4465 430.048 90.1051 429.696C89.7745 429.344 89.6091 428.88 89.6091 428.304C89.6091 427.824 89.7318 427.408 89.9771 427.056C90.2331 426.704 90.5798 426.432 91.0171 426.24C91.4651 426.048 91.9771 425.952 92.5531 425.952C93.1291 425.952 93.6251 426.053 94.0411 426.256C94.4678 426.459 94.7985 426.741 95.0331 427.104C95.2785 427.467 95.4065 427.899 95.4171 428.4H93.9771C93.9665 427.995 93.8331 427.68 93.5771 427.456C93.3211 427.232 92.9638 427.12 92.5051 427.12C92.0358 427.12 91.6731 427.221 91.4171 427.424C91.1611 427.627 91.0331 427.904 91.0331 428.256C91.0331 428.779 91.4171 429.136 92.1851 429.328L93.5611 429.664C94.2225 429.813 94.7185 430.059 95.0491 430.4C95.3798 430.731 95.5451 431.184 95.5451 431.76C95.5451 432.251 95.4118 432.683 95.1451 433.056C94.8785 433.419 94.5105 433.701 94.0411 433.904C93.5825 434.096 93.0385 434.192 92.4091 434.192C91.4918 434.192 90.7611 433.968 90.2171 433.52C89.6731 433.072 89.4011 432.475 89.4011 431.728ZM96.381 426.176H100.925V427.44H96.381V426.176ZM100.861 432.688L101.053 433.936C100.648 434.096 100.216 434.176 99.757 434.176C99.2983 434.176 98.909 434.091 98.589 433.92C98.269 433.739 98.0237 433.472 97.853 433.12C97.6823 432.768 97.597 432.331 97.597 431.808V423.728H99.101V431.6C99.101 432.048 99.1917 432.368 99.373 432.56C99.565 432.741 99.8103 432.832 100.109 432.832C100.344 432.832 100.594 432.784 100.861 432.688Z" fill="black"></path>
</g>
<path d="M311 53.5C317.904 53.5 323.5 59.0964 323.5 66V412C323.5 418.904 317.904 424.5 311 424.5H15C8.09644 424.5 2.5 418.904 2.5 412V66C2.5 59.0964 8.09644 53.5 15 53.5H311Z" stroke="#F0F0F0"></path>
</g>
<defs>
<filter id="filter0_d_8075_7533" x="0" y="52" width="326" height="376" filterUnits="userSpaceOnUse" color-interpolation-filters="sRGB">
<feFlood flood-opacity="0" result="BackgroundImageFix"></feFlood>
<feColorMatrix in="SourceAlpha" type="matrix" values="0 0 0 0 0 0 0 0 0 0 0 0 0 0 0 0 0 0 127 0" result="hardAlpha"></feColorMatrix>
<feOffset dy="1"></feOffset>
<feGaussianBlur stdDeviation="1"></feGaussianBlur>
<feComposite in2="hardAlpha" operator="out"></feComposite>
<feColorMatrix type="matrix" values="0 0 0 0 0 0 0 0 0 0 0 0 0 0 0 0 0 0 0.1 0"></feColorMatrix>
<feBlend mode="normal" in2="BackgroundImageFix" result="effect1_dropShadow_8075_7533"></feBlend>
<feBlend mode="normal" in="SourceGraphic" in2="effect1_dropShadow_8075_7533" result="shape"></feBlend>
</filter>
<clipPath id="clip0_8075_7533">
<path d="M3 66C3 59.3726 8.37258 54 15 54H311C317.627 54 323 59.3726 323 66V412C323 418.627 317.627 424 311 424H15C8.37259 424 3 418.627 3 412V66Z" fill="white"></path>
</clipPath>
<clipPath id="clip1_8075_7533">
<path d="M15 85C15 74.5066 23.5066 66 34 66H292C302.493 66 311 74.5066 311 85V85C311 95.4934 302.493 104 292 104H34C23.5066 104 15 95.4934 15 85V85Z" fill="white"></path>
</clipPath>
</defs>
</svg>