<svg width="64" height="53" viewBox="0 0 64 53" fill="none" xmlns="http://www.w3.org/2000/svg">
<path d="M26.895 20.355C26.895 15.8006 28.6583 12.3731 31.226 10.1215C33.5445 8.08845 36.4002 7.11585 38.8913 7.00083C39.1671 6.98809 39.3911 7.21306 39.3911 7.4892V12.872C39.3911 13.1481 39.1669 13.3701 38.8923 13.3988C37.8116 13.5115 36.5013 13.9849 35.4341 14.9207C34.2886 15.9252 33.2778 17.5848 33.2778 20.355V51.9672C33.2778 52.2433 33.0539 52.4672 32.7778 52.4672H27.395C27.1189 52.4672 26.895 52.2433 26.895 51.9672V20.355Z" fill="white"></path>
<path d="M0 29.7613C0 34.3984 1.78501 37.8944 4.40135 40.1949C6.77247 42.2797 9.70012 43.2742 12.2687 43.3886C12.5445 43.4009 12.7685 43.176 12.7685 42.8998V37.517C12.7685 37.2409 12.5442 37.0189 12.2694 36.9922C11.1117 36.88 9.73134 36.3825 8.61571 35.4015C7.42451 34.3541 6.38277 32.6266 6.38277 29.7613V8.07483C6.38277 7.79869 6.15891 7.57483 5.88277 7.57483H0.5C0.223858 7.57483 0 7.79869 0 8.07483V29.7613Z" fill="white"></path>
<path d="M20.5837 19.5598C20.8598 19.5598 21.0837 19.7836 21.0837 20.0598V42.9907C21.0837 43.2669 20.8598 43.4907 20.5837 43.4907H15.2009C14.9248 43.4907 14.7009 43.2669 14.7009 42.9907V20.0598C14.7009 19.7836 14.9248 19.5598 15.2009 19.5598H20.5837Z" fill="white"></path>
<path d="M38.8913 19.5598C39.1674 19.5598 39.3913 19.7836 39.3913 20.0598V25.4426C39.3913 25.7187 39.1675 25.9426 38.8913 25.9426H23.6055C23.3293 25.9426 23.1055 25.7187 23.1055 25.4426V20.0598C23.1055 19.7836 23.3293 19.5598 23.6055 19.5598H38.8913Z" fill="white"></path>
<path d="M51.6934 18.2972C56.4807 18.2973 59.6807 20.4872 61.5113 23.356C63.2135 26.0235 63.6213 29.0757 63.5045 31.0613C63.3877 33.0469 63.1966 34.0653 63.1966 34.0653L46.756 34.0653C47.6814 35.4893 49.255 36.5548 51.4532 36.6319C53.1103 36.6901 54.2188 36.4684 54.957 36.2304C55.712 35.987 56.166 35.7093 56.7529 35.3838L59.8482 40.9658C59.3917 41.219 58.3749 41.8351 56.9157 42.3056C55.4396 42.7815 53.5901 43.0939 51.2295 43.011C43.2459 42.7309 39.3913 36.074 39.3913 30.7438C39.3913 28.4201 39.8067 25.309 41.7118 22.7122C43.7515 19.932 47.0781 18.2972 51.6934 18.2972ZM51.9252 24.68C49.344 24.68 48.2838 25.6513 47.7543 26.488C47.5359 26.8331 47.3584 27.2351 47.2189 27.6826H56.1511C56.0411 27.375 55.9093 27.0734 55.7529 26.7894C55.1557 25.7046 54.1209 24.68 51.9252 24.68Z" fill="white"></path>
<path d="M26.2138 8.33589C26.2138 9.98457 25.7257 11.5962 24.8114 12.9671C23.897 14.3379 22.5973 15.4063 21.0768 16.0373C19.5562 16.6682 17.883 16.8333 16.2688 16.5116C14.6546 16.19 13.1719 15.3961 12.0081 14.2303C10.8443 13.0645 10.0518 11.5792 9.73066 9.96215C9.40958 8.34514 9.57436 6.66907 10.2042 5.14589C10.834 3.6227 11.9006 2.32081 13.2691 1.40485C14.6376 0.48889 16.2464 0 17.8923 0C20.0993 0 22.2159 0.878251 23.7765 2.44153C25.3371 4.00482 26.2138 6.12507 26.2138 8.33589" fill="#1DFA0F"></path>
<path d="M22.9126 6.99481C22.6013 6.80038 22.3454 6.52882 22.1695 6.20638C21.9936 5.88393 21.9037 5.52148 21.9085 5.15406C22.0602 5.11629 22.202 5.04626 22.3243 4.9487C22.4466 4.85115 22.5465 4.72837 22.6172 4.5887C22.7014 4.42771 22.7322 4.24403 22.705 4.06433C22.6779 3.88464 22.5942 3.7183 22.4663 3.58946C22.4577 3.58172 22.447 3.57669 22.4355 3.57499C22.4241 3.57329 22.4124 3.575 22.4019 3.57991C22.3914 3.58481 22.3826 3.59268 22.3766 3.60256C22.3705 3.61243 22.3675 3.62387 22.3678 3.63546C22.3869 3.72192 22.3884 3.81135 22.3721 3.89838C22.3558 3.98541 22.3221 4.06826 22.2731 4.14193C22.224 4.21561 22.1607 4.2786 22.0867 4.32713C22.0128 4.37566 21.9298 4.40873 21.8428 4.42435C21.1661 4.54444 20.4687 4.42103 19.874 4.07593C19.5525 3.77352 19.5196 3.41852 19.8084 2.85973C19.8137 2.84869 19.8154 2.83627 19.8133 2.82422C19.8113 2.81216 19.8055 2.80105 19.7969 2.7924C19.7882 2.78374 19.7771 2.77797 19.7651 2.77591C19.7531 2.77384 19.7407 2.77557 19.7296 2.78084C19.5128 2.86636 19.3259 3.01387 19.1922 3.20502C19.0584 3.39617 18.9837 3.6225 18.9774 3.85584C18.9711 4.08919 19.0335 4.31924 19.1568 4.51734C19.28 4.71545 19.4587 4.87286 19.6706 4.96999C17.7871 5.54851 17.0127 4.85167 14.8732 4.8188C13.0948 4.8188 12.6747 6.27824 12.7732 7.79684C12.7977 8.39955 12.8679 8.9995 12.9832 9.59155C13.1491 9.94513 13.2492 10.3261 13.2785 10.7157C13.2391 11.0344 13.2391 11.3568 13.2785 11.6755C13.284 11.7133 13.3008 11.7485 13.3265 11.7766C13.3522 11.8048 13.3858 11.8245 13.4229 11.8333C13.6113 11.8896 13.812 11.8896 14.0004 11.8333C14.0988 11.8333 14.171 11.7544 14.1513 11.6689C13.9268 10.8675 13.8709 10.0279 13.9873 9.20368C13.9893 9.17493 13.9992 9.14727 14.0158 9.12373C14.0324 9.10019 14.0551 9.08166 14.0815 9.07015C14.1078 9.05863 14.1368 9.05457 14.1654 9.05841C14.1939 9.06225 14.2208 9.07385 14.2432 9.09193C14.5484 9.26811 14.825 9.48979 15.0636 9.74934C15.6282 10.4105 15.9906 11.2208 16.107 12.0831C16.1081 12.1369 16.1248 12.1892 16.1551 12.2335C16.1854 12.2779 16.228 12.3125 16.2777 12.3329C16.3814 12.3774 16.493 12.4004 16.6058 12.4004C16.7186 12.4004 16.8302 12.3774 16.9339 12.3329C16.9619 12.3182 16.9845 12.2951 16.9987 12.2667C17.0128 12.2384 17.0177 12.2064 17.0127 12.1752C16.8289 11.4389 16.2383 10.5448 16.1858 9.76248C16.1858 9.6047 16.2317 9.59155 16.363 9.61127C16.5275 9.64239 16.6943 9.65999 16.8617 9.66387C16.9123 9.66802 16.9593 9.69158 16.993 9.72962C17.7269 10.51 18.1616 11.5253 18.2202 12.5959C18.2195 12.625 18.2256 12.6539 18.2381 12.6802C18.2507 12.7065 18.2693 12.7294 18.2924 12.7471C18.4959 12.918 18.5024 13.2993 18.5352 13.6477C18.5382 13.6833 18.5508 13.7173 18.5716 13.7463C18.5924 13.7752 18.6207 13.798 18.6534 13.8121C18.9225 13.9106 19.2177 13.9106 19.4868 13.8121C19.5092 13.8037 19.5283 13.7883 19.5413 13.7682C19.5543 13.748 19.5605 13.7242 19.559 13.7003C19.4606 13.0101 18.9027 12.4381 19.0471 11.4126C19.0471 11.1891 19.244 10.8735 19.3621 10.4593C19.4754 9.83108 19.64 9.21323 19.8543 8.61202C20.0315 8.25045 20.4319 7.79026 20.9962 8.11239C21.2995 8.32114 21.6673 8.41443 22.0332 8.37536C22.2839 8.32107 22.5132 8.19436 22.6928 8.01093C22.8724 7.8275 22.9944 7.59538 23.0438 7.34323C23.061 7.27637 23.0584 7.20593 23.0362 7.14054C23.0141 7.07515 22.9734 7.01766 22.9191 6.97509" fill="black"></path>
</svg>