<svg width="34" height="34" viewBox="0 0 34 34" fill="none" xmlns="http://www.w3.org/2000/svg">
<mask id="path-1-outside-1_7770_236" maskUnits="userSpaceOnUse" x="0" y="0" width="34" height="34" fill="black">
<rect fill="white" width="34" height="34"></rect>
<path d="M32.1713 16.5856C32.1713 25.1937 25.1937 32.1713 16.5856 32.1713C7.97759 32.1713 1 25.1937 1 16.5856C1 7.97759 7.97988 1 16.5879 1C25.196 1 32.1736 7.97759 32.1736 16.5856"></path>
</mask>
<path d="M32.1713 16.5856C32.1713 25.1937 25.1937 32.1713 16.5856 32.1713C7.97759 32.1713 1 25.1937 1 16.5856C1 7.97759 7.97988 1 16.5879 1C25.196 1 32.1736 7.97759 32.1736 16.5856" fill="#1DFA0F"></path>
<path d="M32.1713 16.5856H31.1713C31.1713 24.6414 24.6414 31.1713 16.5856 31.1713V32.1713V33.1713C25.746 33.1713 33.1713 25.746 33.1713 16.5856H32.1713ZM16.5856 32.1713V31.1713C8.52987 31.1713 2 24.6414 2 16.5856H1H0C0 25.746 7.4253 33.1713 16.5856 33.1713V32.1713ZM1 16.5856H2C2 8.53006 8.53197 2 16.5879 2V1V0C7.42779 0 0 7.42511 0 16.5856H1ZM16.5879 1V2C24.6437 2 31.1736 8.52987 31.1736 16.5856H32.1736H33.1736C33.1736 7.4253 25.7483 0 16.5879 0V1Z" fill="white" mask="url(#path-1-outside-1_7770_236)"></path>
<path d="M25.9844 14.0735C25.0226 13.327 23.9669 12.1957 24.1043 10.6363C24.8234 10.4302 25.2356 9.9859 25.4325 9.57141C25.7234 8.9577 25.7096 8.33253 25.1577 7.70965C25.089 7.63179 24.9585 7.68446 24.9654 7.7898C24.9906 8.2478 25.0135 9.05388 23.9853 9.26684C22.854 9.50042 20.9098 9.22104 20.2526 8.6142C19.648 8.05544 19.5839 7.38677 20.1289 6.34711C20.177 6.25322 20.0785 6.15017 19.9824 6.19826C19.4786 6.44329 18.558 6.92648 18.5763 8.3165C18.59 9.24165 19.1282 9.98361 19.8679 10.2836C16.3413 11.3713 14.8871 10.0638 10.882 10.0065C7.55002 9.95842 6.77143 12.7339 6.95462 15.5758C7.0279 16.6956 7.12408 18.026 7.34621 18.9283C7.52941 19.668 7.93703 20.0985 7.90039 21.0351C7.87291 21.7908 7.76986 22.1022 7.88894 22.8213C7.91413 22.9724 8.00802 23.0709 8.16603 23.1235C8.57365 23.2655 9.05225 23.1922 9.2469 23.1327C9.42781 23.0778 9.56521 22.9816 9.52857 22.8213C9.2011 21.4061 8.90111 19.4848 9.21942 18.2115C9.26522 18.0306 9.41865 17.8497 9.69574 18.0031C10.1446 18.2505 10.6163 18.6352 11.2346 19.2855C12.1689 20.2679 13.0529 22.1961 13.188 23.648C13.2086 23.8724 13.3185 24.0533 13.5017 24.1197C13.9986 24.296 14.5047 24.2342 14.7703 24.0693C14.8871 23.9983 14.9467 23.8907 14.9169 23.7693C14.5757 22.3908 13.4719 20.7305 13.3757 19.2672C13.3551 18.9672 13.4582 18.9397 13.7032 18.9833C14.0765 19.0474 14.3673 19.0703 14.6398 19.084C14.7314 19.0886 14.8207 19.1275 14.878 19.1985C16.0024 20.5748 17.2733 22.5259 17.1817 24.5571C17.1771 24.6693 17.2275 24.7746 17.3145 24.8456C17.6992 25.1639 17.7084 25.8761 17.7702 26.5265C17.784 26.6639 17.8687 26.7852 17.9946 26.8333C18.4618 27.0119 19.0572 27.044 19.5495 26.8516C19.6366 26.8173 19.6938 26.7326 19.6801 26.641C19.4969 25.3609 18.4824 24.2914 18.7206 22.3724C18.7732 21.9557 19.1007 21.3557 19.3228 20.584C19.8495 18.7543 19.7213 18.1726 20.2365 17.1307C20.5686 16.4597 21.3243 15.5918 22.3777 16.2009C23.1838 16.6658 23.7448 16.762 24.3219 16.6864C25.3295 16.5513 25.9798 15.6788 26.2134 14.7605C26.2798 14.504 26.1836 14.2361 25.9753 14.0735" fill="black"></path>
</svg>