<svg width="24" height="24" viewBox="0 0 24 24" fill="none" xmlns="http://www.w3.org/2000/svg">
<path d="M3.79675 18.9283V10.0358C3.79675 9.67534 3.87659 9.33451 4.03625 9.01334C4.19575 8.69217 4.41842 8.42601 4.70425 8.21484L10.6325 3.76859C11.0343 3.46209 11.4902 3.30884 12 3.30884C12.5098 3.30884 12.9657 3.46209 13.3675 3.76859L19.2958 8.21484C19.5816 8.42601 19.8043 8.69217 19.9638 9.01334C20.1234 9.33451 20.2033 9.67534 20.2033 10.0358V18.9283C20.2033 19.558 19.9815 20.0946 19.538 20.5381C19.0945 20.9816 18.5579 21.2033 17.9283 21.2033H15.1853C14.8661 21.2033 14.5968 21.0936 14.3773 20.8741C14.1576 20.6544 14.0478 20.385 14.0478 20.0658V15.0898C14.0478 14.7705 13.938 14.5011 13.7185 14.2816C13.499 14.0621 13.2296 13.9523 12.9103 13.9523H11.0898C10.7704 13.9523 10.501 14.0621 10.2815 14.2816C10.062 14.5011 9.95225 14.7705 9.95225 15.0898V20.0658C9.95225 20.385 9.84242 20.6544 9.62275 20.8741C9.40325 21.0936 9.13392 21.2033 8.81475 21.2033H6.07175C5.44209 21.2033 4.9055 20.9816 4.462 20.5381C4.0185 20.0946 3.79675 19.558 3.79675 18.9283Z" fill="#A4A4A4"></path>
</svg>