<svg width="24" height="24" viewBox="0 0 24 24" fill="none" xmlns="http://www.w3.org/2000/svg">
<g clip-path="url(#clip0_8207_4630)">
<path d="M12.001 0.686523C18.249 0.686655 23.3145 5.75196 23.3145 12C23.3143 18.2479 18.2489 23.3133 12.001 23.3135C5.75293 23.3135 0.687632 18.248 0.6875 12C0.6875 5.75187 5.75285 0.686523 12.001 0.686523ZM12.001 10.3818C11.3285 10.3818 10.7873 10.9223 10.7871 11.5947V17.2598C10.7872 17.9323 11.3284 18.4736 12.001 18.4736C12.6734 18.4735 13.2147 17.9322 13.2148 17.2598V11.5947C13.2146 10.9224 12.6734 10.382 12.001 10.3818ZM12.001 5.52637C11.5718 5.52637 11.1599 5.69659 10.8564 6C10.553 6.30349 10.3828 6.71533 10.3828 7.14453C10.3828 7.57376 10.5529 7.98556 10.8564 8.28906C11.1599 8.59251 11.5718 8.7627 12.001 8.7627C12.4301 8.76263 12.8421 8.59251 13.1455 8.28906C13.4489 7.98557 13.6191 7.57369 13.6191 7.14453C13.6191 6.71537 13.4489 6.30349 13.1455 6C12.8421 5.69655 12.4301 5.52643 12.001 5.52637Z" fill="#A4A4A4"></path>
</g>
<defs>
<clipPath id="clip0_8207_4630">
<rect width="24" height="24" fill="white"></rect>
</clipPath>
</defs>
</svg>