<svg width="360" height="263" viewBox="0 0 360 263" fill="none" xmlns="http://www.w3.org/2000/svg">
<rect width="360" height="263" fill="#E2E2E2"></rect>
<path d="M8 27.5C8 24.1863 10.6863 21.5 14 21.5H31.7059C35.0196 21.5 37.7059 24.1863 37.7059 27.5V61.5C37.7059 64.8137 35.0196 67.5 31.7059 67.5H14C10.6863 67.5 8 64.8137 8 61.5V27.5Z" fill="#F8F8F8"></path>
<path d="M25.3135 53.7656V40.5381L25.4775 38.4053H27.2207V53.7656H25.3135ZM17.8589 44.0757V43.8604C17.8589 43.0127 17.958 42.2437 18.1562 41.5532C18.3545 40.856 18.645 40.2578 19.0278 39.7588C19.4106 39.2598 19.8721 38.877 20.4121 38.6104C20.959 38.3369 21.5811 38.2002 22.2783 38.2002C22.9756 38.2002 23.5874 38.3232 24.1138 38.5693C24.647 38.8086 25.0981 39.1606 25.4673 39.6255C25.8433 40.0835 26.1406 40.6372 26.3594 41.2866C26.5781 41.936 26.7285 42.6709 26.8105 43.4912V44.4346C26.7354 45.248 26.5884 45.9795 26.3696 46.6289C26.1509 47.2783 25.8535 47.832 25.4775 48.29C25.1084 48.748 24.6538 49.1001 24.1138 49.3462C23.5806 49.5854 22.9619 49.7051 22.2578 49.7051C21.5742 49.7051 20.959 49.5649 20.4121 49.2847C19.8721 49.0044 19.4106 48.6113 19.0278 48.1055C18.6519 47.5996 18.3613 47.0049 18.1562 46.3213C17.958 45.6309 17.8589 44.8823 17.8589 44.0757ZM19.7661 43.8604V44.0757C19.7661 44.6294 19.8242 45.1523 19.9404 45.6445C20.0566 46.1299 20.2344 46.5605 20.4736 46.9365C20.7197 47.3125 21.0273 47.6099 21.3965 47.8286C21.7725 48.0405 22.2168 48.1465 22.7295 48.1465C23.3584 48.1465 23.8813 48.0098 24.2983 47.7363C24.7222 47.4629 25.0605 47.104 25.3135 46.6597C25.5664 46.2085 25.7612 45.7266 25.8979 45.2139V42.7427C25.8228 42.3667 25.7031 42.001 25.5391 41.6455C25.3818 41.29 25.1768 40.9722 24.9238 40.6919C24.6709 40.4048 24.3633 40.1792 24.001 40.0151C23.6455 39.8442 23.2285 39.7588 22.75 39.7588C22.2305 39.7588 21.7827 39.8682 21.4067 40.0869C21.0308 40.3057 20.7197 40.6064 20.4736 40.9893C20.2344 41.3652 20.0566 41.7993 19.9404 42.2915C19.8242 42.7837 19.7661 43.3066 19.7661 43.8604Z" fill="black"></path>
<path d="M42.9219 27.5C42.9219 24.1863 45.6082 21.5 48.9219 21.5H66.6277C69.9414 21.5 72.6277 24.1863 72.6277 27.5V61.5C72.6277 64.8137 69.9414 67.5 66.6277 67.5H48.9219C45.6082 67.5 42.9219 64.8137 42.9219 61.5V27.5Z" fill="#F8F8F8"></path>
<path d="M54.1343 49.5312L56.9849 40.4053H58.2358L57.9897 42.2202L55.0879 51.5H53.8677L54.1343 49.5312ZM52.2168 40.4053L54.647 49.6338L54.8213 51.5H53.5396L50.3198 40.4053H52.2168ZM60.9634 49.562L63.2808 40.4053H65.1675L61.9478 51.5H60.6763L60.9634 49.562ZM58.5127 40.4053L61.3018 49.3774L61.6196 51.5H60.4097L57.4258 42.1997L57.1797 40.4053H58.5127Z" fill="black"></path>
<path d="M77.8428 27.5C77.8428 24.1863 80.5291 21.5 83.8428 21.5H101.549C104.862 21.5 107.549 24.1863 107.549 27.5V61.5C107.549 64.8137 104.862 67.5 101.549 67.5H83.8428C80.5291 67.5 77.8428 64.8137 77.8428 61.5V27.5Z" fill="#F8F8F8"></path>
<path d="M93.1772 51.7051C92.4048 51.7051 91.7041 51.5752 91.0752 51.3154C90.4531 51.0488 89.9165 50.6763 89.4653 50.1978C89.021 49.7192 88.6792 49.1519 88.4399 48.4956C88.2007 47.8394 88.0811 47.1216 88.0811 46.3423V45.9116C88.0811 45.0093 88.2144 44.2061 88.481 43.502C88.7476 42.791 89.1099 42.1895 89.5679 41.6973C90.0259 41.2051 90.5454 40.8325 91.1265 40.5796C91.7075 40.3267 92.3091 40.2002 92.9312 40.2002C93.7241 40.2002 94.4077 40.3369 94.9819 40.6104C95.563 40.8838 96.0381 41.2666 96.4072 41.7588C96.7764 42.2441 97.0498 42.8184 97.2275 43.4814C97.4053 44.1377 97.4941 44.8555 97.4941 45.6348V46.4858H89.209V44.9375H95.5972V44.7939C95.5698 44.3018 95.4673 43.8232 95.2896 43.3584C95.1187 42.8936 94.8452 42.5107 94.4692 42.21C94.0933 41.9092 93.5806 41.7588 92.9312 41.7588C92.5005 41.7588 92.104 41.8511 91.7417 42.0356C91.3794 42.2134 91.0684 42.48 90.8086 42.8354C90.5488 43.1909 90.3472 43.625 90.2036 44.1377C90.0601 44.6504 89.9883 45.2417 89.9883 45.9116V46.3423C89.9883 46.8687 90.0601 47.3643 90.2036 47.8291C90.354 48.2871 90.5693 48.6904 90.8496 49.0391C91.1367 49.3877 91.4819 49.6611 91.8853 49.8594C92.2954 50.0576 92.7603 50.1567 93.2798 50.1567C93.9497 50.1567 94.5171 50.02 94.9819 49.7466C95.4468 49.4731 95.8535 49.1074 96.2021 48.6494L97.3506 49.562C97.1113 49.9243 96.8071 50.2695 96.438 50.5977C96.0688 50.9258 95.6143 51.1924 95.0742 51.3975C94.541 51.6025 93.9087 51.7051 93.1772 51.7051Z" fill="black"></path>
<path d="M112.765 27.5C112.765 24.1863 115.451 21.5 118.765 21.5H136.471C139.784 21.5 142.471 24.1863 142.471 27.5V61.5C142.471 64.8137 139.784 67.5 136.471 67.5H118.765C115.451 67.5 112.765 64.8137 112.765 61.5V27.5Z" fill="#F8F8F8"></path>
<path d="M127.402 42.1484V51.5H125.505V40.4053H127.351L127.402 42.1484ZM130.868 40.3438L130.857 42.1074C130.7 42.0732 130.55 42.0527 130.406 42.0459C130.27 42.0322 130.112 42.0254 129.935 42.0254C129.497 42.0254 129.111 42.0938 128.776 42.2305C128.441 42.3672 128.157 42.5586 127.925 42.8047C127.692 43.0508 127.508 43.3447 127.371 43.6865C127.241 44.0215 127.156 44.3906 127.115 44.7939L126.582 45.1016C126.582 44.4316 126.646 43.8027 126.776 43.2148C126.913 42.627 127.122 42.1074 127.402 41.6562C127.682 41.1982 128.038 40.8428 128.468 40.5898C128.906 40.3301 129.425 40.2002 130.027 40.2002C130.164 40.2002 130.321 40.2173 130.499 40.2515C130.676 40.2788 130.799 40.3096 130.868 40.3438Z" fill="black"></path>
<path d="M147.687 27.5C147.687 24.1863 150.373 21.5 153.687 21.5H171.392C174.706 21.5 177.392 24.1863 177.392 27.5V61.5C177.392 64.8137 174.706 67.5 171.392 67.5H153.687C150.373 67.5 147.687 64.8137 147.687 61.5V27.5Z" fill="#F8F8F8"></path>
<path d="M165.195 40.4053V41.8613H159.196V40.4053H165.195ZM161.227 37.7085H163.124V48.752C163.124 49.1279 163.182 49.4116 163.298 49.603C163.414 49.7944 163.564 49.9209 163.749 49.9824C163.934 50.0439 164.132 50.0747 164.344 50.0747C164.501 50.0747 164.665 50.061 164.836 50.0337C165.014 49.9995 165.147 49.9722 165.236 49.9517L165.246 51.5C165.096 51.5479 164.897 51.5923 164.651 51.6333C164.412 51.6812 164.122 51.7051 163.78 51.7051C163.315 51.7051 162.888 51.6128 162.498 51.4282C162.108 51.2437 161.797 50.936 161.565 50.5054C161.339 50.0679 161.227 49.48 161.227 48.7417V37.7085Z" fill="black"></path>
<path d="M182.608 27.5C182.608 24.1863 185.295 21.5 188.608 21.5H206.314C209.628 21.5 212.314 24.1863 212.314 27.5V61.5C212.314 64.8137 209.628 67.5 206.314 67.5H188.608C185.295 67.5 182.608 64.8137 182.608 61.5V27.5Z" fill="#F8F8F8"></path>
<path d="M197.051 50.3516L200.137 40.4053H202.167L197.717 53.2124C197.615 53.4858 197.478 53.7798 197.307 54.0942C197.143 54.4155 196.931 54.7197 196.671 55.0068C196.412 55.2939 196.097 55.5264 195.728 55.7041C195.366 55.8887 194.932 55.981 194.426 55.981C194.275 55.981 194.084 55.9604 193.852 55.9194C193.619 55.8784 193.455 55.8442 193.359 55.8169L193.349 54.2788C193.404 54.2856 193.489 54.2925 193.605 54.2993C193.729 54.313 193.814 54.3198 193.862 54.3198C194.292 54.3198 194.658 54.2617 194.959 54.1455C195.26 54.0361 195.513 53.8481 195.718 53.5815C195.93 53.3218 196.111 52.9629 196.261 52.5049L197.051 50.3516ZM194.785 40.4053L197.666 49.0186L198.158 51.0181L196.794 51.7153L192.713 40.4053H194.785Z" fill="black"></path>
<path d="M217.529 27.5C217.529 24.1863 220.216 21.5 223.529 21.5H241.235C244.549 21.5 247.235 24.1863 247.235 27.5V61.5C247.235 64.8137 244.549 67.5 241.235 67.5H223.529C220.216 67.5 217.529 64.8137 217.529 61.5V27.5Z" fill="#F8F8F8"></path>
<path d="M234.822 48.9365V40.4053H236.729V51.5H234.915L234.822 48.9365ZM235.181 46.5986L235.971 46.5781C235.971 47.3164 235.892 48 235.735 48.6289C235.584 49.251 235.338 49.791 234.997 50.249C234.655 50.707 234.207 51.0659 233.653 51.3257C233.1 51.5786 232.426 51.7051 231.633 51.7051C231.093 51.7051 230.598 51.6265 230.146 51.4692C229.702 51.312 229.319 51.0693 228.998 50.7412C228.677 50.4131 228.427 49.9858 228.25 49.4595C228.079 48.9331 227.993 48.3008 227.993 47.5625V40.4053H229.89V47.583C229.89 48.082 229.945 48.4956 230.054 48.8237C230.17 49.145 230.324 49.4014 230.516 49.5928C230.714 49.7773 230.933 49.9072 231.172 49.9824C231.418 50.0576 231.671 50.0952 231.931 50.0952C232.737 50.0952 233.376 49.9414 233.848 49.6338C234.32 49.3193 234.658 48.8989 234.863 48.3726C235.075 47.8394 235.181 47.248 235.181 46.5986Z" fill="black"></path>
<path d="M252.451 27.5C252.451 24.1863 255.137 21.5 258.451 21.5H276.157C279.471 21.5 282.157 24.1863 282.157 27.5V61.5C282.157 64.8137 279.471 67.5 276.157 67.5H258.451C255.137 67.5 252.451 64.8137 252.451 61.5V27.5Z" fill="#F8F8F8"></path>
<path d="M268.257 40.4053V51.5H266.35V40.4053H268.257ZM266.207 37.4624C266.207 37.1548 266.299 36.895 266.483 36.6831C266.675 36.4712 266.955 36.3652 267.324 36.3652C267.687 36.3652 267.963 36.4712 268.155 36.6831C268.353 36.895 268.452 37.1548 268.452 37.4624C268.452 37.7563 268.353 38.0093 268.155 38.2212C267.963 38.4263 267.687 38.5288 267.324 38.5288C266.955 38.5288 266.675 38.4263 266.483 38.2212C266.299 38.0093 266.207 37.7563 266.207 37.4624Z" fill="black"></path>
<path d="M287.373 27.5C287.373 24.1863 290.059 21.5 293.373 21.5H311.079C314.393 21.5 317.079 24.1863 317.079 27.5V61.5C317.079 64.8137 314.393 67.5 311.079 67.5H293.373C290.059 67.5 287.373 64.8137 287.373 61.5V27.5Z" fill="#F8F8F8"></path>
<path d="M297.181 46.0757V45.8398C297.181 45.04 297.297 44.2983 297.529 43.6147C297.762 42.9243 298.097 42.3262 298.534 41.8203C298.972 41.3076 299.501 40.9111 300.124 40.6309C300.746 40.3438 301.443 40.2002 302.215 40.2002C302.995 40.2002 303.695 40.3438 304.317 40.6309C304.946 40.9111 305.479 41.3076 305.917 41.8203C306.361 42.3262 306.7 42.9243 306.932 43.6147C307.165 44.2983 307.281 45.04 307.281 45.8398V46.0757C307.281 46.8755 307.165 47.6172 306.932 48.3008C306.7 48.9844 306.361 49.5825 305.917 50.0952C305.479 50.6011 304.95 50.9976 304.328 51.2847C303.712 51.5649 303.015 51.7051 302.236 51.7051C301.457 51.7051 300.756 51.5649 300.134 51.2847C299.512 50.9976 298.979 50.6011 298.534 50.0952C298.097 49.5825 297.762 48.9844 297.529 48.3008C297.297 47.6172 297.181 46.8755 297.181 46.0757ZM299.078 45.8398V46.0757C299.078 46.6294 299.143 47.1523 299.272 47.6445C299.402 48.1299 299.597 48.5605 299.857 48.9365C300.124 49.3125 300.455 49.6099 300.852 49.8286C301.248 50.0405 301.709 50.1465 302.236 50.1465C302.755 50.1465 303.21 50.0405 303.6 49.8286C303.996 49.6099 304.324 49.3125 304.584 48.9365C304.844 48.5605 305.039 48.1299 305.168 47.6445C305.305 47.1523 305.374 46.6294 305.374 46.0757V45.8398C305.374 45.293 305.305 44.7769 305.168 44.2915C305.039 43.7993 304.84 43.3652 304.574 42.9893C304.314 42.6064 303.986 42.3057 303.589 42.0869C303.2 41.8682 302.742 41.7588 302.215 41.7588C301.696 41.7588 301.238 41.8682 300.841 42.0869C300.452 42.3057 300.124 42.6064 299.857 42.9893C299.597 43.3652 299.402 43.7993 299.272 44.2915C299.143 44.7769 299.078 45.293 299.078 45.8398Z" fill="black"></path>
<path d="M322.294 27.5C322.294 24.1863 324.98 21.5 328.294 21.5H346C349.314 21.5 352 24.1863 352 27.5V61.5C352 64.8137 349.314 67.5 346 67.5H328.294C324.98 67.5 322.294 64.8137 322.294 61.5V27.5Z" fill="#F8F8F8"></path>
<path d="M334.593 42.5381V55.7656H332.686V40.4053H334.429L334.593 42.5381ZM342.068 45.8604V46.0757C342.068 46.8823 341.973 47.6309 341.781 48.3213C341.59 49.0049 341.31 49.5996 340.94 50.1055C340.578 50.6113 340.13 51.0044 339.597 51.2847C339.064 51.5649 338.452 51.7051 337.762 51.7051C337.058 51.7051 336.436 51.5889 335.896 51.3564C335.355 51.124 334.897 50.7856 334.521 50.3413C334.146 49.897 333.845 49.3638 333.619 48.7417C333.4 48.1196 333.25 47.4189 333.168 46.6396V45.4912C333.25 44.6709 333.404 43.936 333.629 43.2866C333.855 42.6372 334.152 42.0835 334.521 41.6255C334.897 41.1606 335.352 40.8086 335.885 40.5693C336.418 40.3232 337.034 40.2002 337.731 40.2002C338.428 40.2002 339.047 40.3369 339.587 40.6104C340.127 40.877 340.582 41.2598 340.951 41.7588C341.32 42.2578 341.597 42.856 341.781 43.5532C341.973 44.2437 342.068 45.0127 342.068 45.8604ZM340.161 46.0757V45.8604C340.161 45.3066 340.103 44.7871 339.987 44.3018C339.871 43.8096 339.689 43.3789 339.443 43.0098C339.204 42.6338 338.896 42.3398 338.521 42.1279C338.145 41.9092 337.697 41.7998 337.177 41.7998C336.699 41.7998 336.282 41.8818 335.926 42.0459C335.578 42.21 335.28 42.4321 335.034 42.7124C334.788 42.9858 334.586 43.3003 334.429 43.6558C334.279 44.0044 334.166 44.3667 334.091 44.7427V47.3984C334.228 47.877 334.419 48.3281 334.665 48.752C334.911 49.1689 335.239 49.5073 335.649 49.7671C336.06 50.02 336.576 50.1465 337.198 50.1465C337.71 50.1465 338.151 50.0405 338.521 49.8286C338.896 49.6099 339.204 49.3125 339.443 48.9365C339.689 48.5605 339.871 48.1299 339.987 47.6445C340.103 47.1523 340.161 46.6294 340.161 46.0757Z" fill="black"></path>
<path d="M26.2422 85.5C26.2422 82.1863 28.9285 79.5 32.2422 79.5H49.7776C53.0913 79.5 55.7776 82.1863 55.7776 85.5V119.5C55.7776 122.814 53.0913 125.5 49.7776 125.5H32.2422C28.9285 125.5 26.2422 122.814 26.2422 119.5V85.5Z" fill="#F8F8F8"></path>
<path d="M43.2861 107.603V101.892C43.2861 101.454 43.1973 101.075 43.0195 100.753C42.8486 100.425 42.5889 100.172 42.2402 99.9946C41.8916 99.8169 41.4609 99.728 40.9482 99.728C40.4697 99.728 40.0493 99.8101 39.687 99.9741C39.3315 100.138 39.0513 100.354 38.8462 100.62C38.6479 100.887 38.5488 101.174 38.5488 101.481H36.6519C36.6519 101.085 36.7544 100.692 36.9595 100.302C37.1646 99.9126 37.4585 99.5605 37.8413 99.2461C38.231 98.9248 38.6958 98.6719 39.2358 98.4873C39.7827 98.2959 40.3911 98.2002 41.061 98.2002C41.8677 98.2002 42.5786 98.3369 43.1938 98.6104C43.8159 98.8838 44.3013 99.2974 44.6499 99.8511C45.0054 100.398 45.1831 101.085 45.1831 101.912V107.08C45.1831 107.449 45.2139 107.842 45.2754 108.259C45.3438 108.676 45.4429 109.035 45.5728 109.336V109.5H43.5938C43.498 109.281 43.4229 108.991 43.3682 108.628C43.3135 108.259 43.2861 107.917 43.2861 107.603ZM43.6143 102.773L43.6348 104.106H41.7173C41.1772 104.106 40.6953 104.151 40.2715 104.24C39.8477 104.322 39.4922 104.448 39.2051 104.619C38.918 104.79 38.6992 105.005 38.5488 105.265C38.3984 105.518 38.3232 105.815 38.3232 106.157C38.3232 106.506 38.4019 106.824 38.5591 107.111C38.7163 107.398 38.9521 107.627 39.2666 107.798C39.5879 107.962 39.981 108.044 40.4458 108.044C41.0269 108.044 41.5396 107.921 41.9839 107.675C42.4282 107.429 42.7803 107.128 43.04 106.772C43.3066 106.417 43.4502 106.072 43.4707 105.737L44.2808 106.649C44.2329 106.937 44.103 107.254 43.8911 107.603C43.6792 107.952 43.3955 108.287 43.04 108.608C42.6914 108.922 42.2744 109.186 41.7891 109.397C41.3105 109.603 40.7705 109.705 40.1689 109.705C39.417 109.705 38.7573 109.558 38.1899 109.264C37.6294 108.97 37.1919 108.577 36.8774 108.085C36.5698 107.586 36.416 107.029 36.416 106.414C36.416 105.819 36.5322 105.296 36.7646 104.845C36.9971 104.387 37.332 104.007 37.7695 103.707C38.207 103.399 38.7334 103.167 39.3486 103.009C39.9639 102.852 40.6509 102.773 41.4097 102.773H43.6143Z" fill="black"></path>
<path d="M60.9902 85.5C60.9902 82.1863 63.6765 79.5 66.9902 79.5H84.5256C87.8393 79.5 90.5256 82.1863 90.5256 85.5V119.5C90.5256 122.814 87.8393 125.5 84.5256 125.5H66.9902C63.6765 125.5 60.9902 122.814 60.9902 119.5V85.5Z" fill="#F8F8F8"></path>
<path d="M78.2393 106.557C78.2393 106.284 78.1777 106.031 78.0547 105.798C77.9385 105.559 77.6958 105.344 77.3267 105.152C76.9644 104.954 76.4175 104.783 75.686 104.64C75.0708 104.51 74.5137 104.356 74.0146 104.178C73.5225 104 73.1021 103.785 72.7534 103.532C72.4116 103.279 72.1484 102.982 71.9639 102.64C71.7793 102.298 71.687 101.898 71.687 101.44C71.687 101.003 71.7827 100.589 71.9741 100.2C72.1724 99.8101 72.4492 99.4648 72.8047 99.1641C73.167 98.8633 73.6011 98.6274 74.1069 98.4565C74.6128 98.2856 75.1768 98.2002 75.7988 98.2002C76.6875 98.2002 77.4463 98.3574 78.0752 98.6719C78.7041 98.9863 79.186 99.4067 79.521 99.9331C79.856 100.453 80.0234 101.03 80.0234 101.666H78.1265C78.1265 101.358 78.0342 101.061 77.8496 100.774C77.6719 100.48 77.4087 100.237 77.0601 100.046C76.7183 99.8545 76.2979 99.7588 75.7988 99.7588C75.2725 99.7588 74.8452 99.8408 74.5171 100.005C74.1958 100.162 73.96 100.364 73.8096 100.61C73.666 100.856 73.5942 101.116 73.5942 101.389C73.5942 101.594 73.6284 101.779 73.6968 101.943C73.772 102.1 73.9019 102.247 74.0864 102.384C74.271 102.514 74.5308 102.637 74.8657 102.753C75.2007 102.869 75.6279 102.985 76.1475 103.102C77.0566 103.307 77.8052 103.553 78.3931 103.84C78.981 104.127 79.4185 104.479 79.7056 104.896C79.9927 105.313 80.1362 105.819 80.1362 106.414C80.1362 106.899 80.0337 107.343 79.8286 107.747C79.6304 108.15 79.3398 108.499 78.957 108.792C78.5811 109.08 78.1299 109.305 77.6035 109.469C77.084 109.626 76.4995 109.705 75.8501 109.705C74.8726 109.705 74.0454 109.531 73.3687 109.182C72.6919 108.833 72.1792 108.382 71.8306 107.829C71.4819 107.275 71.3076 106.69 71.3076 106.075H73.2148C73.2422 106.595 73.3926 107.008 73.666 107.316C73.9395 107.617 74.2744 107.832 74.6709 107.962C75.0674 108.085 75.4604 108.146 75.8501 108.146C76.3696 108.146 76.8037 108.078 77.1523 107.941C77.5078 107.805 77.7778 107.617 77.9624 107.377C78.147 107.138 78.2393 106.865 78.2393 106.557Z" fill="black"></path>
<path d="M95.7373 85.5C95.7373 82.1863 98.4236 79.5 101.737 79.5H119.273C122.586 79.5 125.273 82.1863 125.273 85.5V119.5C125.273 122.814 122.586 125.5 119.273 125.5H101.737C98.4236 125.5 95.7373 122.814 95.7373 119.5V85.5Z" fill="#F8F8F8"></path>
<path d="M113.017 107.347V93.75H114.924V109.5H113.181L113.017 107.347ZM105.552 104.076V103.86C105.552 103.013 105.655 102.244 105.86 101.553C106.072 100.856 106.369 100.258 106.752 99.7588C107.142 99.2598 107.603 98.877 108.136 98.6104C108.676 98.3369 109.278 98.2002 109.941 98.2002C110.638 98.2002 111.247 98.3232 111.766 98.5693C112.292 98.8086 112.737 99.1606 113.099 99.6255C113.468 100.083 113.759 100.637 113.971 101.287C114.183 101.936 114.33 102.671 114.412 103.491V104.435C114.336 105.248 114.189 105.979 113.971 106.629C113.759 107.278 113.468 107.832 113.099 108.29C112.737 108.748 112.292 109.1 111.766 109.346C111.24 109.585 110.625 109.705 109.92 109.705C109.271 109.705 108.676 109.565 108.136 109.285C107.603 109.004 107.142 108.611 106.752 108.105C106.369 107.6 106.072 107.005 105.86 106.321C105.655 105.631 105.552 104.882 105.552 104.076ZM107.459 103.86V104.076C107.459 104.629 107.514 105.149 107.624 105.634C107.74 106.12 107.917 106.547 108.157 106.916C108.396 107.285 108.7 107.576 109.069 107.788C109.438 107.993 109.879 108.095 110.392 108.095C111.021 108.095 111.537 107.962 111.94 107.695C112.351 107.429 112.679 107.077 112.925 106.639C113.171 106.202 113.362 105.727 113.499 105.214V102.743C113.417 102.367 113.297 102.004 113.14 101.656C112.99 101.3 112.792 100.986 112.545 100.712C112.306 100.432 112.009 100.21 111.653 100.046C111.305 99.8818 110.891 99.7998 110.413 99.7998C109.893 99.7998 109.445 99.9092 109.069 100.128C108.7 100.34 108.396 100.634 108.157 101.01C107.917 101.379 107.74 101.81 107.624 102.302C107.514 102.787 107.459 103.307 107.459 103.86Z" fill="black"></path>
<path d="M130.485 85.5C130.485 82.1863 133.172 79.5 136.485 79.5H154.021C157.334 79.5 160.021 82.1863 160.021 85.5V119.5C160.021 122.814 157.334 125.5 154.021 125.5H136.485C133.172 125.5 130.485 122.814 130.485 119.5V85.5Z" fill="#F8F8F8"></path>
<path d="M145.878 109.5H143.981V97.2363C143.981 96.4365 144.125 95.7632 144.412 95.2163C144.706 94.6626 145.126 94.2456 145.673 93.9653C146.22 93.6782 146.87 93.5347 147.622 93.5347C147.84 93.5347 148.059 93.5483 148.278 93.5757C148.503 93.603 148.722 93.644 148.934 93.6987L148.832 95.2471C148.688 95.2129 148.524 95.189 148.339 95.1753C148.162 95.1616 147.984 95.1548 147.806 95.1548C147.403 95.1548 147.054 95.2368 146.76 95.4009C146.473 95.5581 146.254 95.7905 146.104 96.0981C145.954 96.4058 145.878 96.7852 145.878 97.2363V109.5ZM148.237 98.4053V99.8613H142.228V98.4053H148.237Z" fill="black"></path>
<path d="M165.232 85.5C165.232 82.1863 167.919 79.5 171.232 79.5H188.768C192.082 79.5 194.768 82.1863 194.768 85.5V119.5C194.768 122.814 192.082 125.5 188.768 125.5H171.232C167.919 125.5 165.232 122.814 165.232 119.5V85.5Z" fill="#F8F8F8"></path>
<path d="M182.738 98.4053H184.46V109.264C184.46 110.242 184.262 111.076 183.866 111.766C183.469 112.457 182.916 112.979 182.205 113.335C181.5 113.697 180.687 113.878 179.764 113.878C179.381 113.878 178.93 113.817 178.411 113.694C177.898 113.578 177.392 113.376 176.893 113.089C176.401 112.809 175.987 112.429 175.652 111.951L176.647 110.823C177.112 111.383 177.597 111.773 178.103 111.992C178.616 112.21 179.122 112.32 179.621 112.32C180.222 112.32 180.742 112.207 181.179 111.981C181.617 111.756 181.955 111.421 182.194 110.977C182.44 110.539 182.563 109.999 182.563 109.356V100.846L182.738 98.4053ZM175.099 104.076V103.86C175.099 103.013 175.198 102.244 175.396 101.553C175.601 100.856 175.892 100.258 176.268 99.7588C176.65 99.2598 177.112 98.877 177.652 98.6104C178.192 98.3369 178.8 98.2002 179.477 98.2002C180.174 98.2002 180.783 98.3232 181.302 98.5693C181.829 98.8086 182.273 99.1606 182.635 99.6255C183.004 100.083 183.295 100.637 183.507 101.287C183.719 101.936 183.866 102.671 183.948 103.491V104.435C183.873 105.248 183.726 105.979 183.507 106.629C183.295 107.278 183.004 107.832 182.635 108.29C182.273 108.748 181.829 109.1 181.302 109.346C180.776 109.585 180.161 109.705 179.457 109.705C178.793 109.705 178.192 109.565 177.652 109.285C177.119 109.004 176.661 108.611 176.278 108.105C175.895 107.6 175.601 107.005 175.396 106.321C175.198 105.631 175.099 104.882 175.099 104.076ZM176.996 103.86V104.076C176.996 104.629 177.05 105.149 177.16 105.634C177.276 106.12 177.45 106.547 177.683 106.916C177.922 107.285 178.226 107.576 178.595 107.788C178.964 107.993 179.405 108.095 179.918 108.095C180.547 108.095 181.066 107.962 181.477 107.695C181.887 107.429 182.211 107.077 182.451 106.639C182.697 106.202 182.888 105.727 183.025 105.214V102.743C182.95 102.367 182.833 102.004 182.676 101.656C182.526 101.3 182.328 100.986 182.082 100.712C181.842 100.432 181.545 100.21 181.189 100.046C180.834 99.8818 180.417 99.7998 179.938 99.7998C179.419 99.7998 178.971 99.9092 178.595 100.128C178.226 100.34 177.922 100.634 177.683 101.01C177.45 101.379 177.276 101.81 177.16 102.302C177.05 102.787 176.996 103.307 176.996 103.86Z" fill="black"></path>
<path d="M199.979 85.5C199.979 82.1863 202.666 79.5 205.979 79.5H223.515C226.829 79.5 229.515 82.1863 229.515 85.5V119.5C229.515 122.814 226.829 125.5 223.515 125.5H205.979C202.666 125.5 199.979 122.814 199.979 119.5V85.5Z" fill="#F8F8F8"></path>
<path d="M212.307 93.75V109.5H210.41V93.75H212.307ZM211.855 103.532L211.066 103.501C211.073 102.743 211.186 102.042 211.404 101.399C211.623 100.75 211.931 100.186 212.327 99.7075C212.724 99.229 213.195 98.8599 213.742 98.6001C214.296 98.3335 214.908 98.2002 215.578 98.2002C216.125 98.2002 216.617 98.2754 217.054 98.4258C217.492 98.5693 217.864 98.8018 218.172 99.123C218.486 99.4443 218.726 99.8613 218.89 100.374C219.054 100.88 219.136 101.499 219.136 102.23V109.5H217.229V102.209C217.229 101.628 217.143 101.164 216.972 100.815C216.801 100.459 216.552 100.203 216.224 100.046C215.896 99.8818 215.492 99.7998 215.014 99.7998C214.542 99.7998 214.111 99.8989 213.722 100.097C213.339 100.295 213.007 100.569 212.727 100.917C212.454 101.266 212.238 101.666 212.081 102.117C211.931 102.562 211.855 103.033 211.855 103.532Z" fill="black"></path>
<path d="M234.728 85.5C234.728 82.1863 237.414 79.5 240.728 79.5H258.263C261.577 79.5 264.263 82.1863 264.263 85.5V119.5C264.263 122.814 261.577 125.5 258.263 125.5H240.728C237.414 125.5 234.728 122.814 234.728 119.5V85.5Z" fill="#F8F8F8"></path>
<path d="M248.48 98.4053H250.387V110.823C250.387 111.5 250.278 112.074 250.059 112.545C249.847 113.017 249.526 113.373 249.095 113.612C248.671 113.858 248.135 113.981 247.485 113.981C247.314 113.981 247.116 113.964 246.891 113.93C246.658 113.896 246.463 113.854 246.306 113.807L246.316 112.279C246.446 112.306 246.593 112.327 246.757 112.34C246.921 112.361 247.065 112.371 247.188 112.371C247.468 112.371 247.704 112.32 247.896 112.217C248.087 112.115 248.23 111.951 248.326 111.725C248.429 111.5 248.48 111.199 248.48 110.823V98.4053ZM248.285 95.4624C248.285 95.1548 248.381 94.895 248.572 94.6831C248.764 94.4712 249.041 94.3652 249.403 94.3652C249.772 94.3652 250.052 94.4712 250.244 94.6831C250.435 94.895 250.531 95.1548 250.531 95.4624C250.531 95.7563 250.435 96.0093 250.244 96.2212C250.052 96.4263 249.772 96.5288 249.403 96.5288C249.041 96.5288 248.764 96.4263 248.572 96.2212C248.381 96.0093 248.285 95.7563 248.285 95.4624Z" fill="black"></path>
<path d="M269.475 85.5C269.475 82.1863 272.161 79.5 275.475 79.5H293.01C296.324 79.5 299.01 82.1863 299.01 85.5V119.5C299.01 122.814 296.324 125.5 293.01 125.5H275.475C272.161 125.5 269.475 122.814 269.475 119.5V85.5Z" fill="#F8F8F8"></path>
<path d="M282.273 93.75V109.5H280.366V93.75H282.273ZM289.051 98.4053L284.211 103.583L281.504 106.393L281.351 104.373L283.289 102.056L286.734 98.4053H289.051ZM287.318 109.5L283.36 104.209L284.345 102.517L289.554 109.5H287.318Z" fill="black"></path>
<path d="M304.223 85.5C304.223 82.1863 306.909 79.5 310.223 79.5H327.758C331.072 79.5 333.758 82.1863 333.758 85.5V119.5C333.758 122.814 331.072 125.5 327.758 125.5H310.223C306.909 125.5 304.223 122.814 304.223 119.5V85.5Z" fill="#F8F8F8"></path>
<path d="M319.944 93.75V109.5H318.037V93.75H319.944Z" fill="black"></path>
<path d="M8 143.5C8 140.186 10.6863 137.5 14 137.5H49.7778C53.0915 137.5 55.7778 140.186 55.7778 143.5V177.5C55.7778 180.814 53.0915 183.5 49.7778 183.5H14C10.6863 183.5 8 180.814 8 177.5V143.5Z" fill="#D1D1D1"></path>
<path fill-rule="evenodd" clip-rule="evenodd" d="M39.6716 161.44C40.6016 161.44 41.028 160.282 40.3199 159.679L31.8886 152.5L23.4572 159.679C22.7491 160.282 23.1755 161.44 24.1055 161.44H26.6386V167.5C26.6386 168.052 27.0863 168.5 27.6386 168.5H36.1386C36.6909 168.5 37.1386 168.052 37.1386 167.5V161.44H39.6716Z" stroke="black" stroke-width="2"></path>
<path d="M60.9902 143.5C60.9902 140.186 63.6765 137.5 66.9902 137.5H84.5256C87.8393 137.5 90.5256 140.186 90.5256 143.5V177.5C90.5256 180.814 87.8393 183.5 84.5256 183.5H66.9902C63.6765 183.5 60.9902 180.814 60.9902 177.5V143.5Z" fill="#F8F8F8"></path>
<path d="M80.2593 165.941V167.5H72.1895V165.941H80.2593ZM79.9619 157.749L72.6201 167.5H71.4614V166.105L78.752 156.405H79.9619V157.749ZM79.1211 156.405V157.974H71.5435V156.405H79.1211Z" fill="black"></path>
<path d="M95.7373 143.5C95.7373 140.186 98.4236 137.5 101.737 137.5H119.273C122.586 137.5 125.273 140.186 125.273 143.5V177.5C125.273 180.814 122.586 183.5 119.273 183.5H101.737C98.4236 183.5 95.7373 180.814 95.7373 177.5V143.5Z" fill="#F8F8F8"></path>
<path d="M108.023 156.405L110.454 160.445L112.915 156.405H115.14L111.51 161.881L115.252 167.5H113.058L110.495 163.337L107.931 167.5H105.727L109.459 161.881L105.839 156.405H108.023Z" fill="black"></path>
<path d="M130.485 143.5C130.485 140.186 133.172 137.5 136.485 137.5H154.021C157.334 137.5 160.021 140.186 160.021 143.5V177.5C160.021 180.814 157.334 183.5 154.021 183.5H136.485C133.172 183.5 130.485 180.814 130.485 177.5V143.5Z" fill="#F8F8F8"></path>
<path d="M145.643 166.146C146.094 166.146 146.511 166.054 146.894 165.87C147.276 165.685 147.591 165.432 147.837 165.111C148.083 164.783 148.223 164.41 148.257 163.993H150.062C150.028 164.649 149.806 165.261 149.396 165.829C148.992 166.389 148.462 166.844 147.806 167.192C147.15 167.534 146.429 167.705 145.643 167.705C144.809 167.705 144.081 167.558 143.458 167.264C142.843 166.97 142.331 166.567 141.92 166.054C141.517 165.542 141.213 164.954 141.008 164.291C140.81 163.621 140.71 162.913 140.71 162.168V161.737C140.71 160.992 140.81 160.288 141.008 159.625C141.213 158.955 141.517 158.364 141.92 157.851C142.331 157.338 142.843 156.935 143.458 156.641C144.081 156.347 144.809 156.2 145.643 156.2C146.511 156.2 147.27 156.378 147.919 156.733C148.568 157.082 149.078 157.561 149.447 158.169C149.823 158.771 150.028 159.454 150.062 160.22H148.257C148.223 159.762 148.093 159.348 147.868 158.979C147.649 158.61 147.348 158.316 146.965 158.097C146.589 157.872 146.148 157.759 145.643 157.759C145.062 157.759 144.573 157.875 144.176 158.107C143.787 158.333 143.476 158.641 143.243 159.03C143.018 159.413 142.854 159.84 142.751 160.312C142.655 160.777 142.607 161.252 142.607 161.737V162.168C142.607 162.653 142.655 163.132 142.751 163.604C142.847 164.075 143.007 164.502 143.233 164.885C143.465 165.268 143.776 165.576 144.166 165.808C144.562 166.034 145.055 166.146 145.643 166.146Z" fill="black"></path>
<path d="M165.232 143.5C165.232 140.186 167.919 137.5 171.232 137.5H188.768C192.082 137.5 194.768 140.186 194.768 143.5V177.5C194.768 180.814 192.082 183.5 188.768 183.5H171.232C167.919 183.5 165.232 180.814 165.232 177.5V143.5Z" fill="#F8F8F8"></path>
<path d="M179.733 165.788L182.769 156.405H184.707L180.718 167.5H179.446L179.733 165.788ZM177.201 156.405L180.328 165.839L180.543 167.5H179.272L175.252 156.405H177.201Z" fill="black"></path>
<path d="M199.98 143.5C199.98 140.186 202.667 137.5 205.98 137.5H223.516C226.83 137.5 229.516 140.186 229.516 143.5V177.5C229.516 180.814 226.83 183.5 223.516 183.5H205.98C202.667 183.5 199.98 180.814 199.98 177.5V143.5Z" fill="#F8F8F8"></path>
<path d="M210.288 151.75H212.195V165.347L212.031 167.5H210.288V151.75ZM219.69 161.86V162.076C219.69 162.882 219.595 163.631 219.403 164.321C219.212 165.005 218.932 165.6 218.562 166.105C218.193 166.611 217.742 167.004 217.209 167.285C216.676 167.565 216.064 167.705 215.374 167.705C214.669 167.705 214.051 167.585 213.518 167.346C212.991 167.1 212.547 166.748 212.185 166.29C211.822 165.832 211.532 165.278 211.313 164.629C211.101 163.979 210.954 163.248 210.872 162.435V161.491C210.954 160.671 211.101 159.936 211.313 159.287C211.532 158.637 211.822 158.083 212.185 157.625C212.547 157.161 212.991 156.809 213.518 156.569C214.044 156.323 214.656 156.2 215.353 156.2C216.05 156.2 216.669 156.337 217.209 156.61C217.749 156.877 218.2 157.26 218.562 157.759C218.932 158.258 219.212 158.856 219.403 159.553C219.595 160.244 219.69 161.013 219.69 161.86ZM217.783 162.076V161.86C217.783 161.307 217.732 160.787 217.629 160.302C217.527 159.81 217.363 159.379 217.137 159.01C216.912 158.634 216.614 158.34 216.245 158.128C215.876 157.909 215.421 157.8 214.881 157.8C214.403 157.8 213.986 157.882 213.63 158.046C213.282 158.21 212.984 158.432 212.738 158.712C212.492 158.986 212.291 159.3 212.133 159.656C211.983 160.004 211.87 160.367 211.795 160.743V163.214C211.904 163.692 212.082 164.154 212.328 164.598C212.581 165.036 212.916 165.395 213.333 165.675C213.757 165.955 214.28 166.095 214.902 166.095C215.415 166.095 215.852 165.993 216.214 165.788C216.583 165.576 216.881 165.285 217.106 164.916C217.339 164.547 217.51 164.12 217.619 163.634C217.729 163.149 217.783 162.629 217.783 162.076Z" fill="black"></path>
<path d="M234.728 143.5C234.728 140.186 237.414 137.5 240.728 137.5H258.263C261.577 137.5 264.263 140.186 264.263 143.5V177.5C264.263 180.814 261.577 183.5 258.263 183.5H240.728C237.414 183.5 234.728 180.814 234.728 177.5V143.5Z" fill="#F8F8F8"></path>
<path d="M247.034 158.774V167.5H245.137V156.405H246.932L247.034 158.774ZM246.583 161.532L245.793 161.501C245.8 160.743 245.913 160.042 246.132 159.399C246.351 158.75 246.658 158.186 247.055 157.708C247.451 157.229 247.923 156.86 248.47 156.6C249.023 156.333 249.635 156.2 250.305 156.2C250.852 156.2 251.344 156.275 251.782 156.426C252.219 156.569 252.592 156.802 252.899 157.123C253.214 157.444 253.453 157.861 253.617 158.374C253.781 158.88 253.863 159.499 253.863 160.23V167.5H251.956V160.209C251.956 159.628 251.871 159.164 251.7 158.815C251.529 158.459 251.279 158.203 250.951 158.046C250.623 157.882 250.22 157.8 249.741 157.8C249.27 157.8 248.839 157.899 248.449 158.097C248.066 158.295 247.735 158.569 247.455 158.917C247.181 159.266 246.966 159.666 246.809 160.117C246.658 160.562 246.583 161.033 246.583 161.532Z" fill="black"></path>
<path d="M269.476 143.5C269.476 140.186 272.162 137.5 275.476 137.5H293.011C296.325 137.5 299.011 140.186 299.011 143.5V177.5C299.011 180.814 296.325 183.5 293.011 183.5H275.476C272.162 183.5 269.476 180.814 269.476 177.5V143.5Z" fill="#F8F8F8"></path>
<path d="M278.368 158.61V167.5H276.46V156.405H278.265L278.368 158.61ZM277.978 161.532L277.096 161.501C277.103 160.743 277.202 160.042 277.394 159.399C277.585 158.75 277.869 158.186 278.245 157.708C278.621 157.229 279.089 156.86 279.649 156.6C280.21 156.333 280.859 156.2 281.598 156.2C282.117 156.2 282.596 156.275 283.033 156.426C283.471 156.569 283.85 156.798 284.171 157.113C284.493 157.427 284.742 157.831 284.92 158.323C285.098 158.815 285.187 159.41 285.187 160.107V167.5H283.29V160.199C283.29 159.618 283.19 159.153 282.992 158.805C282.801 158.456 282.527 158.203 282.172 158.046C281.816 157.882 281.399 157.8 280.921 157.8C280.36 157.8 279.892 157.899 279.516 158.097C279.14 158.295 278.839 158.569 278.614 158.917C278.388 159.266 278.224 159.666 278.122 160.117C278.026 160.562 277.978 161.033 277.978 161.532ZM285.166 160.486L283.895 160.876C283.901 160.268 284 159.683 284.192 159.123C284.39 158.562 284.674 158.063 285.043 157.625C285.419 157.188 285.88 156.843 286.427 156.59C286.974 156.33 287.6 156.2 288.304 156.2C288.898 156.2 289.425 156.279 289.883 156.436C290.348 156.593 290.737 156.836 291.052 157.164C291.373 157.485 291.616 157.899 291.78 158.405C291.944 158.911 292.026 159.512 292.026 160.209V167.5H290.119V160.189C290.119 159.567 290.02 159.085 289.821 158.743C289.63 158.395 289.356 158.152 289.001 158.015C288.652 157.872 288.235 157.8 287.75 157.8C287.333 157.8 286.964 157.872 286.643 158.015C286.321 158.159 286.051 158.357 285.833 158.61C285.614 158.856 285.446 159.14 285.33 159.461C285.221 159.782 285.166 160.124 285.166 160.486Z" fill="black"></path>
<path d="M304.223 143.5C304.223 140.186 306.909 137.5 310.223 137.5H346C349.314 137.5 352 140.186 352 143.5V177.5C352 180.814 349.314 183.5 346 183.5H310.223C306.909 183.5 304.223 180.814 304.223 177.5V143.5Z" fill="#D1D1D1"></path>
<path fill-rule="evenodd" clip-rule="evenodd" d="M323.659 151.5H337.3C338.86 151.5 340.111 152.731 340.111 154.237V166.763C340.111 168.269 338.86 169.5 337.3 169.5H323.659C322.711 169.5 321.903 169.036 321.375 168.271L316.111 160.496L321.38 152.713C321.902 151.957 322.711 151.5 323.659 151.5ZM338.128 154.237C338.128 153.765 337.752 153.395 337.301 153.395H323.66C323.411 153.395 323.208 153.51 323.042 153.749L318.475 160.495L318.127 159.981V161.01L318.475 160.495L323.038 167.235C323.212 167.487 323.418 167.605 323.66 167.605H337.301C337.752 167.605 338.128 167.235 338.128 166.763V154.237Z" fill="black"></path>
<path fill-rule="evenodd" clip-rule="evenodd" d="M334.658 163.513L333.346 164.764L330.021 161.594L326.697 164.764L325.385 163.513L328.709 160.343L325.385 157.173L326.697 155.922L330.021 159.092L333.346 155.922L334.658 157.173L331.333 160.343L334.658 163.513Z" fill="black"></path>
<path d="M8 218.5C8 205.797 18.2974 195.5 31 195.5H32.7778C45.4804 195.5 55.7778 205.797 55.7778 218.5V218.5C55.7778 231.203 45.4804 241.5 32.7778 241.5H31C18.2974 241.5 8 231.203 8 218.5V218.5Z" fill="#D1D1D1"></path>
<path d="M20.3193 220.567H18.7949C18.7995 220.144 18.8359 219.788 18.9043 219.501C18.9727 219.209 19.0866 218.945 19.2461 218.708C19.4102 218.471 19.6266 218.22 19.8955 217.956C20.1051 217.756 20.2943 217.566 20.4629 217.389C20.6315 217.206 20.766 217.015 20.8662 216.814C20.9665 216.609 21.0166 216.375 21.0166 216.11C21.0166 215.823 20.9688 215.579 20.873 215.379C20.7773 215.178 20.6361 215.026 20.4492 214.921C20.2669 214.816 20.0391 214.764 19.7656 214.764C19.5378 214.764 19.3236 214.809 19.123 214.9C18.9225 214.987 18.7607 215.124 18.6377 215.311C18.5146 215.493 18.4486 215.734 18.4395 216.035H16.792C16.8011 215.461 16.9378 214.978 17.2021 214.586C17.4665 214.194 17.8219 213.9 18.2686 213.704C18.7152 213.508 19.2142 213.41 19.7656 213.41C20.3763 213.41 20.8981 213.515 21.3311 213.725C21.764 213.93 22.0944 214.23 22.3223 214.627C22.5547 215.019 22.6709 215.493 22.6709 216.049C22.6709 216.45 22.5911 216.814 22.4316 217.143C22.2721 217.466 22.0648 217.769 21.8096 218.052C21.5544 218.33 21.2786 218.608 20.9824 218.886C20.7272 219.118 20.554 219.371 20.4629 219.645C20.3717 219.913 20.3239 220.221 20.3193 220.567ZM18.6582 222.7C18.6582 222.454 18.7425 222.247 18.9111 222.078C19.0798 221.905 19.3099 221.818 19.6016 221.818C19.8932 221.818 20.1234 221.905 20.292 222.078C20.4606 222.247 20.5449 222.454 20.5449 222.7C20.5449 222.946 20.4606 223.156 20.292 223.329C20.1234 223.498 19.8932 223.582 19.6016 223.582C19.3099 223.582 19.0798 223.498 18.9111 223.329C18.7425 223.156 18.6582 222.946 18.6582 222.7ZM28.4473 213.513V223.5H26.7998V215.468L24.3594 216.295V214.935L28.249 213.513H28.4473ZM38.5781 222.188V223.5H31.9062V222.372L35.1465 218.838C35.502 218.437 35.7822 218.09 35.9873 217.799C36.1924 217.507 36.3359 217.245 36.418 217.013C36.5046 216.776 36.5479 216.546 36.5479 216.322C36.5479 216.008 36.4886 215.732 36.3701 215.495C36.2562 215.254 36.0876 215.064 35.8643 214.928C35.641 214.786 35.3698 214.716 35.0508 214.716C34.6816 214.716 34.3717 214.796 34.1211 214.955C33.8704 215.115 33.6813 215.336 33.5537 215.618C33.4261 215.896 33.3623 216.215 33.3623 216.575H31.7148C31.7148 215.996 31.847 215.468 32.1113 214.989C32.3757 214.506 32.7585 214.123 33.2598 213.841C33.7611 213.554 34.3649 213.41 35.0713 213.41C35.7367 213.41 36.3018 213.522 36.7666 213.745C37.2314 213.968 37.5846 214.285 37.8262 214.695C38.0723 215.105 38.1953 215.591 38.1953 216.151C38.1953 216.461 38.1452 216.769 38.0449 217.074C37.9447 217.38 37.8011 217.685 37.6143 217.99C37.432 218.291 37.2155 218.594 36.9648 218.899C36.7142 219.2 36.4385 219.506 36.1377 219.815L33.9844 222.188H38.5781ZM41.7979 217.778H42.7822C43.165 217.778 43.4818 217.712 43.7324 217.58C43.9876 217.448 44.1768 217.266 44.2998 217.033C44.4229 216.801 44.4844 216.534 44.4844 216.233C44.4844 215.919 44.4274 215.65 44.3135 215.427C44.2041 215.199 44.0355 215.023 43.8076 214.9C43.5843 214.777 43.2995 214.716 42.9531 214.716C42.6615 214.716 42.3971 214.775 42.1602 214.894C41.9277 215.007 41.7432 215.172 41.6064 215.386C41.4697 215.595 41.4014 215.846 41.4014 216.138H39.7471C39.7471 215.609 39.8861 215.14 40.1641 214.729C40.4421 214.319 40.8203 213.998 41.2988 213.766C41.7819 213.529 42.3242 213.41 42.9258 213.41C43.5684 213.41 44.1289 213.517 44.6074 213.731C45.0905 213.941 45.4665 214.256 45.7354 214.675C46.0042 215.094 46.1387 215.614 46.1387 216.233C46.1387 216.516 46.0726 216.803 45.9404 217.095C45.8083 217.386 45.6123 217.653 45.3525 217.895C45.0928 218.132 44.7692 218.325 44.3818 218.476C43.9945 218.621 43.5456 218.694 43.0352 218.694H41.7979V217.778ZM41.7979 219.063V218.161H43.0352C43.6185 218.161 44.1152 218.229 44.5254 218.366C44.9401 218.503 45.2773 218.692 45.5371 218.934C45.7969 219.171 45.986 219.442 46.1045 219.747C46.2275 220.052 46.2891 220.376 46.2891 220.718C46.2891 221.183 46.2048 221.597 46.0361 221.962C45.8721 222.322 45.6374 222.627 45.332 222.878C45.0267 223.129 44.6689 223.318 44.2588 223.445C43.8532 223.573 43.4111 223.637 42.9326 223.637C42.5042 223.637 42.0941 223.577 41.7021 223.459C41.3102 223.34 40.9593 223.165 40.6494 222.933C40.3395 222.696 40.0934 222.402 39.9111 222.051C39.7334 221.695 39.6445 221.285 39.6445 220.82H41.292C41.292 221.117 41.3604 221.379 41.4971 221.606C41.6383 221.83 41.8343 222.005 42.085 222.133C42.3402 222.26 42.6318 222.324 42.96 222.324C43.3063 222.324 43.6048 222.263 43.8555 222.14C44.1061 222.017 44.2975 221.834 44.4297 221.593C44.5664 221.351 44.6348 221.06 44.6348 220.718C44.6348 220.33 44.5596 220.016 44.4092 219.774C44.2588 219.533 44.0446 219.355 43.7666 219.241C43.4886 219.123 43.1605 219.063 42.7822 219.063H41.7979Z" fill="black"></path>
<path d="M61 201.5C61 198.186 63.6863 195.5 67 195.5H119C122.314 195.5 125 198.186 125 201.5V235.5C125 238.814 122.314 241.5 119 241.5H67C63.6863 241.5 61 238.814 61 235.5V201.5Z" fill="#F8F8F8"></path>
<path fill-rule="evenodd" clip-rule="evenodd" d="M93.0002 208.08C90.3536 208.08 88.2002 210.233 88.2002 212.88C88.2002 215.527 90.3536 217.68 93.0002 217.68C95.6468 217.68 97.8002 215.527 97.8002 212.88C97.8002 210.233 95.6468 208.08 93.0002 208.08M93 218.88C89.6916 218.88 87 216.188 87 212.88C87 209.571 89.6916 206.88 93 206.88C96.3084 206.88 99 209.571 99 212.88C99 216.188 96.3084 218.88 93 218.88" fill="black"></path>
<path d="M94.6973 214.459C94.8896 214.241 95.2216 214.221 95.4385 214.413C95.6553 214.605 95.6754 214.937 95.4834 215.154C94.8519 215.868 93.9433 216.277 92.9902 216.277C92.0372 216.277 91.1286 215.868 90.4971 215.154C90.3051 214.937 90.3252 214.605 90.542 214.413C90.7592 214.221 91.0909 214.242 91.2832 214.459C91.7152 214.947 92.3377 215.228 92.9902 215.228C93.6427 215.228 94.2653 214.947 94.6973 214.459ZM90.8906 211.08C91.3878 211.08 91.791 211.483 91.791 211.98C91.7909 212.478 91.3877 212.881 90.8906 212.881C90.3935 212.881 89.9903 212.478 89.9902 211.98C89.9902 211.483 90.3934 211.08 90.8906 211.08ZM95.0908 211.08C95.588 211.08 95.9912 211.483 95.9912 211.98C95.9911 212.478 95.5879 212.881 95.0908 212.881C94.5937 212.881 94.1905 212.478 94.1904 211.98C94.1904 211.483 94.5936 211.08 95.0908 211.08Z" fill="black"></path>
<path d="M94.4355 224.88V226.408C94.4355 227.03 94.2783 227.686 93.9639 228.376C93.6494 229.074 93.2085 229.655 92.6411 230.12L91.5645 229.371C91.7832 229.07 91.9678 228.763 92.1182 228.448C92.2686 228.141 92.3813 227.819 92.4565 227.484C92.5386 227.156 92.5796 226.808 92.5796 226.438V224.88H94.4355Z" fill="black"></path>
<path fill-rule="evenodd" clip-rule="evenodd" d="M130.485 201.5C130.485 198.186 133.172 195.5 136.485 195.5H258.263C261.577 195.5 264.263 198.186 264.263 201.5V235.5C264.263 238.814 261.577 241.5 258.263 241.5H217.282H136.485C133.172 241.5 130.485 238.814 130.485 235.5V201.5Z" fill="#F8F8F8"></path>
<path d="M269.475 201.5C269.475 198.186 272.161 195.5 275.475 195.5H293.01C296.324 195.5 299.01 198.186 299.01 201.5V235.5C299.01 238.814 296.324 241.5 293.01 241.5H275.475C272.161 241.5 269.475 238.814 269.475 235.5V201.5Z" fill="#F8F8F8"></path>
<path d="M282.95 224.995C282.95 224.674 283.049 224.404 283.248 224.185C283.453 223.959 283.747 223.847 284.129 223.847C284.512 223.847 284.803 223.959 285.001 224.185C285.206 224.404 285.309 224.674 285.309 224.995C285.309 225.31 285.206 225.576 285.001 225.795C284.803 226.014 284.512 226.123 284.129 226.123C283.747 226.123 283.453 226.014 283.248 225.795C283.049 225.576 282.95 225.31 282.95 224.995Z" fill="black"></path>
<path d="M304.223 218.5C304.223 205.797 314.52 195.5 327.223 195.5H329C341.703 195.5 352 205.797 352 218.5V218.5C352 231.203 341.703 241.5 329 241.5H327.223C314.52 241.5 304.223 231.203 304.223 218.5V218.5Z" fill="#D1D1D1"></path>
<path d="M325.111 224.5L319.111 218.5L325.111 212.5L326.511 213.9L322.911 217.5H335.111V213.5H337.111V219.5H322.911L326.511 223.1L325.111 224.5Z" fill="black"></path>
</svg>