<svg width="24" height="24" viewBox="0 0 24 24" fill="none" xmlns="http://www.w3.org/2000/svg">
<g clip-path="url(#clip0_7800_774)">
<path d="M13.9744 11.3901L22.4923 8.19533C23.1692 7.96299 23.1692 6.97553 22.4923 6.74319L13.9744 3.54847C12.6769 3.08378 11.3231 3.08378 10.0256 3.54847L1.50769 6.74319C0.830769 6.97553 0.830769 7.96299 1.50769 8.19533L10.0256 11.3901C11.3231 11.8547 12.6769 11.8547 13.9744 11.3901Z" fill="#A4A4A4"></path>
<path d="M18.7129 18.5345L16.118 19.8124C13.5231 21.0903 10.5334 21.0903 7.93849 19.8124L5.34362 18.5345C4.15901 17.9537 3.36926 16.7339 3.36926 15.3398V11.8547C3.36926 11.4481 3.76413 11.2157 4.1026 11.3319L9.96926 13.5392C11.3231 14.0619 12.7898 14.0619 14.1436 13.5392L19.9539 11.3319C20.2923 11.2157 20.6872 11.4481 20.6872 11.8547V15.3398C20.6872 16.7339 19.8975 17.9537 18.7129 18.5345Z" fill="#A4A4A4"></path>
</g>
<defs>
<clipPath id="clip0_7800_774">
<rect width="22" height="17.6" fill="white" transform="translate(1 3.19995)"></rect>
</clipPath>
</defs>
</svg>