<svg width="24" height="24" viewBox="0 0 24 24" fill="none" xmlns="http://www.w3.org/2000/svg">
<path d="M20.9882 15.9944V10.2022L13.0817 14.4994C12.7378 14.6859 12.3773 14.7802 12.0002 14.7822C11.623 14.7842 11.2625 14.6899 10.9187 14.4994L2.65392 9.99493C2.44676 9.8831 2.29867 9.74118 2.20967 9.56918C2.12067 9.39718 2.07617 9.2076 2.07617 9.00043C2.07617 8.79326 2.12067 8.60368 2.20967 8.43168C2.29867 8.25968 2.44676 8.11776 2.65392 8.00593L10.9187 3.50743C11.0885 3.41226 11.2636 3.34085 11.4439 3.29318C11.6243 3.24551 11.8097 3.22168 12.0002 3.22168C12.1907 3.22168 12.3761 3.24551 12.5564 3.29318C12.7368 3.34085 12.9118 3.41226 13.0817 3.50743L22.5769 8.68368C22.7634 8.77885 22.9095 8.9166 23.0152 9.09693C23.1207 9.2771 23.1734 9.47085 23.1734 9.67818V16.0004C23.1734 16.3076 23.0687 16.566 22.8592 16.7757C22.6495 16.9853 22.3911 17.0902 22.0839 17.0902C21.7766 17.0902 21.5172 16.9843 21.3057 16.7727C21.094 16.5612 20.9882 16.3018 20.9882 15.9944ZM10.9187 20.4934L6.10992 17.9009C5.73276 17.6938 5.43959 17.4109 5.23042 17.0524C5.02109 16.6939 4.91642 16.3054 4.91642 15.8869V12.3379L10.9187 15.5889C11.2625 15.7756 11.623 15.8689 12.0002 15.8689C12.3773 15.8689 12.7378 15.7756 13.0817 15.5889L19.0839 12.3379V15.8869C19.0839 16.3054 18.9793 16.6939 18.7699 17.0524C18.5608 17.4109 18.2676 17.6938 17.8904 17.9009L13.0817 20.4934C12.9118 20.5886 12.7368 20.659 12.5564 20.7047C12.3761 20.7503 12.1907 20.7732 12.0002 20.7732C11.8097 20.7732 11.6243 20.7503 11.4439 20.7047C11.2636 20.659 11.0885 20.5886 10.9187 20.4934Z" fill="#0052B0"></path>
</svg>