<svg width="24" height="24" viewBox="0 0 24 24" fill="none" xmlns="http://www.w3.org/2000/svg">
<path d="M4.72625 8.98767C4.35808 8.98767 4.04517 8.85892 3.7875 8.60142C3.52984 8.34375 3.401 8.03083 3.401 7.66267V6.34063C3.401 5.97263 3.52984 5.65979 3.7875 5.40212C4.04517 5.14446 4.35808 5.01562 4.72625 5.01562H19.274C19.642 5.01562 19.9548 5.14446 20.2125 5.40212C20.4702 5.65979 20.599 5.97263 20.599 6.34063V7.66267C20.599 8.03083 20.4702 8.34375 20.2125 8.60142C19.9548 8.85892 19.642 8.98767 19.274 8.98767H4.72625Z" fill="#A4A4A4"></path>
<path d="M4.72625 14.0048C4.35808 14.0048 4.04517 13.876 3.7875 13.6185C3.52984 13.3608 3.401 13.0479 3.401 12.6798V11.3577C3.401 10.9897 3.52984 10.6769 3.7875 10.4192C4.04517 10.1615 4.35808 10.0327 4.72625 10.0327H19.274C19.642 10.0327 19.9548 10.1615 20.2125 10.4192C20.4702 10.6769 20.599 10.9897 20.599 11.3577V12.6798C20.599 13.0479 20.4702 13.3608 20.2125 13.6185C19.9548 13.876 19.642 14.0048 19.274 14.0048H4.72625Z" fill="#A4A4A4"></path>
<path d="M4.72625 18.9845C4.35808 18.9845 4.04517 18.8557 3.7875 18.5982C3.52984 18.3406 3.401 18.0277 3.401 17.6595V16.3375C3.401 15.9695 3.52984 15.6566 3.7875 15.399C4.04517 15.1413 4.35808 15.0125 4.72625 15.0125H19.274C19.642 15.0125 19.9548 15.1413 20.2125 15.399C20.4702 15.6566 20.599 15.9695 20.599 16.3375V17.6595C20.599 18.0277 20.4702 18.3406 20.2125 18.5982C19.9548 18.8557 19.642 18.9845 19.274 18.9845H4.72625Z" fill="#A4A4A4"></path>
</svg>