<svg width="24" height="24" viewBox="0 0 24 24" fill="none" xmlns="http://www.w3.org/2000/svg">
<path d="M6.91023 8.91016V2.99991C6.91023 2.69274 7.01506 2.43432 7.22473 2.22466C7.43439 2.01499 7.69281 1.91016 7.99998 1.91016C8.30714 1.91016 8.56556 2.01499 8.77523 2.22466C8.98489 2.43432 9.08973 2.69274 9.08973 2.99991V8.91016H10.0897V2.99991C10.0897 2.69274 10.1955 2.43432 10.407 2.22466C10.6186 2.01499 10.8781 1.91016 11.1852 1.91016C11.4926 1.91016 11.751 2.01499 11.9605 2.22466C12.1701 2.43432 12.275 2.69274 12.275 2.99991V8.91016C12.275 9.89532 11.9636 10.7578 11.3407 11.4977C10.7179 12.2375 9.96756 12.7241 9.08973 12.9574V20.9999C9.08973 21.3071 8.98489 21.5655 8.77523 21.7752C8.56556 21.9848 8.30714 22.0897 7.99998 22.0897C7.69281 22.0897 7.43439 21.9848 7.22473 21.7752C7.01506 21.5655 6.91023 21.3071 6.91023 20.9999V12.9574C6.03239 12.7241 5.28206 12.2375 4.65923 11.4977C4.03639 10.7578 3.72498 9.89532 3.72498 8.91016V2.99991C3.72498 2.69274 3.83081 2.43432 4.04248 2.22466C4.25398 2.01499 4.51339 1.91016 4.82073 1.91016C5.12789 1.91016 5.38631 2.01499 5.59598 2.22466C5.80548 2.43432 5.91023 2.69274 5.91023 2.99991V8.91016H6.91023ZM17.1852 14.0897H15.3227C15.0036 14.0897 14.7342 13.9798 14.5147 13.7602C14.2951 13.5407 14.1852 13.2713 14.1852 12.9522V6.99991C14.1852 5.82124 14.6234 4.67832 15.4997 3.57116C16.3761 2.46382 17.2765 1.91016 18.201 1.91016C18.537 1.91016 18.8149 2.04282 19.0347 2.30816C19.2547 2.57332 19.3647 2.88416 19.3647 3.24066V20.9999C19.3647 21.3071 19.2599 21.5655 19.0502 21.7752C18.8407 21.9848 18.5823 22.0897 18.275 22.0897C17.9678 22.0897 17.7094 21.9848 17.4997 21.7752C17.2901 21.5655 17.1852 21.3071 17.1852 20.9999V14.0897Z" fill="#A4A4A4"></path>
</svg>