<svg width="24" height="24" viewBox="0 0 24 24" fill="none" xmlns="http://www.w3.org/2000/svg">
<path d="M4.99979 3.72461H18.9998C19.319 3.72461 19.5884 3.83436 19.808 4.05386C20.0275 4.27353 20.1373 4.54294 20.1373 4.86211C20.1373 5.18128 20.0275 5.45069 19.808 5.67036C19.5884 5.88986 19.319 5.99961 18.9998 5.99961H4.99979C4.68063 5.99961 4.41121 5.88986 4.19154 5.67036C3.97204 5.45069 3.86229 5.18128 3.86229 4.86211C3.86229 4.54294 3.97204 4.27353 4.19154 4.05386C4.41121 3.83436 4.68063 3.72461 4.99979 3.72461ZM4.99979 20.2746C4.68063 20.2746 4.41121 20.1649 4.19154 19.9454C3.97204 19.7257 3.86229 19.4563 3.86229 19.1371V14.2746H3.72904C3.37254 14.2746 3.08438 14.1399 2.86454 13.8704C2.64454 13.6007 2.57188 13.2896 2.64654 12.9371L3.68229 7.90136C3.74029 7.63603 3.87296 7.41944 4.08029 7.25161C4.28746 7.08361 4.52371 6.99961 4.78904 6.99961H19.2105C19.4759 6.99961 19.7121 7.08361 19.9193 7.25161C20.1266 7.41944 20.2593 7.63603 20.3173 7.90136L21.353 12.9371C21.4277 13.2896 21.355 13.6007 21.135 13.8704C20.9152 14.1399 20.627 14.2746 20.2705 14.2746H20.1373V19.1371C20.1373 19.4563 20.0275 19.7257 19.808 19.9454C19.5884 20.1649 19.319 20.2746 18.9998 20.2746C18.6806 20.2746 18.4112 20.1649 18.1915 19.9454C17.972 19.7257 17.8623 19.4563 17.8623 19.1371V14.2746H14.1373V19.1371C14.1373 19.4563 14.0275 19.7257 13.808 19.9454C13.5884 20.1649 13.319 20.2746 12.9998 20.2746H4.99979ZM6.13729 17.9996H11.8623V14.2746H6.13729V17.9996Z" fill="#08BF91"></path>
</svg>