<svg width="24" height="24" viewBox="0 0 24 24" fill="none" xmlns="http://www.w3.org/2000/svg">
<path d="M8.71387 12.6768C9.98287 12.6768 11 13.7044 11 14.9824V18.0498C11 19.3188 9.98287 20.3545 8.71387 20.3545H5.67188C4.41186 20.3545 3.38574 19.3188 3.38574 18.0498V14.9824C3.38574 13.7044 4.41186 12.6768 5.67188 12.6768H8.71387ZM18.3281 12.6768C19.5881 12.6768 20.6143 13.7045 20.6143 14.9824V18.0498C20.6143 19.3188 19.5881 20.3544 18.3281 20.3545H15.2861C14.0171 20.3545 13 19.3188 13 18.0498V14.9824C13 13.7044 14.0171 12.6768 15.2861 12.6768H18.3281ZM8.71387 3C9.98278 3.00002 10.9999 4.0349 11 5.30469V8.37305C11 9.65105 9.98287 10.6767 8.71387 10.6768H5.67188C4.41186 10.6768 3.38574 9.65107 3.38574 8.37305V5.30469C3.38588 4.03488 4.41194 3 5.67188 3H8.71387ZM18.3281 3C19.588 3.00009 20.6141 4.03494 20.6143 5.30469V8.37305C20.6143 9.65101 19.5881 10.6767 18.3281 10.6768H15.2861C14.0171 10.6768 13 9.65107 13 8.37305V5.30469C13.0001 4.03488 14.0172 3 15.2861 3H18.3281Z" fill="#A4A4A4"></path>
</svg>