<svg width="24" height="24" viewBox="0 0 24 24" fill="none" xmlns="http://www.w3.org/2000/svg">
<path fill-rule="evenodd" clip-rule="evenodd" d="M8.27556 3H15.7253C18.4711 3 20 4.602 20 7.347V16.644C20 19.434 18.4711 21 15.7253 21H8.27556C5.57333 21 4 19.434 4 16.644V7.347C4 4.602 5.57333 3 8.27556 3ZM8.51554 7.19403V7.18503H11.1724C11.5555 7.18503 11.8667 7.50003 11.8667 7.88613C11.8667 8.28303 11.5555 8.59803 11.1724 8.59803H8.51554C8.13243 8.59803 7.82221 8.28303 7.82221 7.89603C7.82221 7.50903 8.13243 7.19403 8.51554 7.19403ZM8.51554 12.6661H15.4844C15.8667 12.6661 16.1778 12.3511 16.1778 11.9641C16.1778 11.5771 15.8667 11.2612 15.4844 11.2612H8.51554C8.13243 11.2612 7.82221 11.5771 7.82221 11.9641C7.82221 12.3511 8.13243 12.6661 8.51554 12.6661ZM8.51552 16.7791H15.4844C15.8391 16.7431 16.1066 16.4362 16.1066 16.0771C16.1066 15.7081 15.8391 15.4021 15.4844 15.3661H8.51552C8.24885 15.3391 7.99108 15.4651 7.84885 15.6991C7.70663 15.9241 7.70663 16.2211 7.84885 16.4551C7.99108 16.6801 8.24885 16.8151 8.51552 16.7791Z" fill="#A4A4A4"></path>
</svg>