<svg width="24" height="24" viewBox="0 0 24 24" fill="none" xmlns="http://www.w3.org/2000/svg">
<path d="M4.72625 11.4897C4.35808 11.4897 4.04517 11.3507 3.7875 11.0726C3.52984 10.7944 3.401 10.4565 3.401 10.0589V6.44641C3.401 6.04903 3.52984 5.71122 3.7875 5.43298C4.04517 5.15474 4.35808 5.01562 4.72625 5.01562H19.274C19.642 5.01562 19.9548 5.15474 20.2125 5.43298C20.4702 5.71122 20.599 6.04903 20.599 6.44641V10.0589C20.599 10.4565 20.4702 10.7944 20.2125 11.0726C19.9548 11.3507 19.642 11.4897 19.274 11.4897H4.72625Z" fill="#A4A4A4"></path>
<path d="M4.72625 19.0317C4.35808 19.0317 4.04517 18.8927 3.7875 18.6146C3.52984 18.3364 3.401 17.9985 3.401 17.6009V13.9884C3.401 13.591 3.52984 13.2532 3.7875 12.975C4.04517 12.6967 4.35808 12.5576 4.72625 12.5576H19.274C19.642 12.5576 19.9548 12.6967 20.2125 12.975C20.4702 13.2532 20.599 13.591 20.599 13.9884V17.6009C20.599 17.9985 20.4702 18.3364 20.2125 18.6146C19.9548 18.8927 19.642 19.0317 19.274 19.0317H4.72625Z" fill="#A4A4A4"></path>
</svg>